# Blender 5.2.0 LTS
# www.blender.org
mtllib Brazo2.mtl
g Brazo_2_RoverModificado.004
v -3.029356 2.819192 -0.164000
v -2.962270 2.888045 -0.156336
v -2.964381 2.883990 -0.101430
v -3.012825 2.833802 -0.093251
v -3.054945 2.789239 -0.059007
v -3.084327 2.757083 -0.003913
v -3.096499 2.742233 0.063643
v -3.089608 2.746945 0.133378
v -3.064702 2.770507 0.194674
v -3.025574 2.809329 0.238199
v -2.978180 2.857501 0.257328
v -2.929736 2.907689 0.249148
v -2.887617 2.952252 0.214905
v -2.858234 2.984408 0.159811
v -2.846062 2.999259 0.092254
v -2.852954 2.994544 0.022520
v -2.877859 2.970984 -0.038776
v -2.916988 2.932162 -0.082302
v -3.086230 2.760823 -0.170498
v -3.129545 2.711618 -0.036658
v -3.146586 2.690826 0.057921
v -3.136939 2.697426 0.155549
v -3.104253 2.726225 0.298072
v -3.047379 2.784594 0.304569
v -2.980293 2.853446 0.312234
v -2.913206 2.922297 0.319898
v -2.856333 2.980668 0.326395
v -2.813016 3.029872 0.192556
v -2.795974 3.050664 0.097977
v -2.805624 3.044064 0.000348
v -2.838310 3.015265 -0.142174
v -2.895183 2.956897 -0.148672
v -3.060688 3.231120 -0.134789
v -3.117563 3.172749 -0.141287
v -3.184648 3.103900 -0.148951
v -3.028002 3.259919 0.007733
v -3.018353 3.266518 0.105362
v -3.035394 3.245726 0.199941
v -3.078711 3.196522 0.333781
v -3.135585 3.138152 0.327283
v -3.202671 3.069300 0.319619
v -3.269758 3.000449 0.311954
v -3.326631 2.942078 0.305457
v -3.359318 2.913279 0.162934
v -3.368965 2.906680 0.065306
v -3.351924 2.927472 -0.029273
v -3.308608 2.976678 -0.163113
v -3.251735 3.035046 -0.156615
v -3.298930 2.984677 -0.090808
v -3.076320 3.213145 -0.065376
v -3.296170 2.989976 -0.162560
v -3.073560 3.218444 -0.137128
v -3.314262 2.955243 0.307813
v -3.091652 3.183713 0.333245
v -3.311502 2.960541 0.236061
v -3.088892 3.189009 0.261493
v -3.558735 3.244838 -0.153840
v -3.561208 3.405577 -0.142067
v -3.593326 3.324790 -0.149267
v -3.497178 3.471293 -0.134752
v -3.336125 3.473305 -0.128408
v -3.417165 3.505589 -0.129141
v -3.563967 3.400281 -0.070315
v -3.561496 3.239539 -0.082089
v -3.596086 3.319491 -0.077516
v -3.338885 3.468007 -0.056657
v -3.499938 3.465995 -0.063000
v -3.419924 3.500291 -0.057390
v -3.574067 3.215403 0.244780
v -3.576539 3.376145 0.256554
v -3.608659 3.295357 0.249354
v -3.512511 3.441859 0.263869
v -3.351457 3.443873 0.270213
v -3.432496 3.476155 0.269479
v -3.579299 3.370847 0.328306
v -3.576827 3.210105 0.316532
v -3.611418 3.290059 0.321105
v -3.354217 3.438573 0.341964
v -3.515270 3.436560 0.335621
v -3.435255 3.470858 0.341231
v 0.034626 0.319344 -0.268731
v 0.029217 0.308961 -0.128098
v -0.301960 -0.026099 -0.307185
v -0.307369 -0.036484 -0.166551
v -0.317477 -0.055886 0.096220
v -0.322885 -0.066270 0.236853
v 0.019109 0.289558 0.134673
v 0.013701 0.279174 0.275306
v -0.228679 0.238848 -0.284803
v -0.292164 0.140980 -0.294471
v -0.132434 0.304913 -0.276222
v -0.313218 0.026210 -0.303755
v -0.018077 0.329120 -0.270037
v -0.234089 0.228463 -0.144169
v -0.297572 0.130595 -0.153837
v -0.137842 0.294530 -0.135589
v -0.318628 0.015826 -0.163122
v -0.023485 0.318735 -0.129403
v -0.244195 0.209061 0.118602
v -0.307679 0.111194 0.108933
v -0.147949 0.275126 0.127182
v -0.328735 -0.003577 0.099649
v -0.033592 0.299333 0.133368
v -0.249604 0.198676 0.259235
v -0.313089 0.100809 0.249567
v -0.153358 0.264743 0.267815
v -0.039001 0.288948 0.274001
v -0.334143 -0.013961 0.240283
v 0.196260 0.246135 -0.295054
v 0.173261 0.201986 0.302878
v 0.262728 0.149892 -0.299603
v 0.239731 0.105742 0.298328
v 0.287307 0.035692 -0.307091
v 0.264308 -0.008458 0.290841
v 0.266250 -0.079078 -0.316375
v 0.243253 -0.123228 0.281556
v 0.202768 -0.176946 -0.326043
v 0.179770 -0.221096 0.271888
v 0.106520 -0.243012 -0.334623
v 0.083523 -0.287162 0.263308
v -0.007836 -0.267218 -0.340809
v -0.030834 -0.311368 0.257122
v -0.122894 -0.245879 -0.343659
v -0.145891 -0.290030 0.254272
v -0.221135 -0.182243 -0.342739
v -0.244133 -0.226394 0.255192
v -0.287605 -0.086001 -0.338189
v -0.310602 -0.130151 0.259742
v -0.312181 0.028199 -0.330702
v -0.335181 -0.015950 0.267229
v -0.291126 0.142970 -0.321418
v -0.314125 0.098819 0.276514
v -0.227643 0.240837 -0.311749
v -0.250642 0.196687 0.286182
v -0.131397 0.306903 -0.303169
v -0.154395 0.262753 0.294762
v -0.017040 0.331109 -0.296983
v -0.040038 0.286959 0.300948
v 0.098017 0.309770 -0.294134
v 0.075020 0.265620 0.303798
v -2.206721 2.450087 0.208592
v -2.212130 2.439703 0.349225
v -2.191204 2.479873 -0.194813
v -2.196613 2.469490 -0.054179
v -2.527792 2.134430 -0.233266
v -2.533201 2.124045 -0.092633
v -2.543308 2.104643 0.170138
v -2.548716 2.094257 0.310772
v -3.129371 3.044139 -0.095951
v -3.177815 2.993951 -0.087771
v -3.219934 2.949385 -0.053528
v -3.249316 2.917229 0.001566
v -3.261488 2.902379 0.069123
v -3.254596 2.907092 0.138857
v -3.229691 2.930653 0.200153
v -3.190563 2.969476 0.243678
v -3.143171 3.017648 0.262807
v -3.094725 3.067836 0.254628
v -3.052606 3.112401 0.220384
v -3.023225 3.144555 0.165290
v -3.011052 3.159405 0.097734
v -3.017945 3.154692 0.027999
v -3.042849 3.131131 -0.033297
v -3.081977 3.092309 -0.076822
v -2.803358 2.630480 -0.100207
v -2.754915 2.680668 -0.108387
v -2.845477 2.585915 -0.065963
v -2.874861 2.553760 -0.010870
v -2.887033 2.538909 0.056687
v -2.880141 2.543623 0.126421
v -2.855235 2.567185 0.187717
v -2.816106 2.606005 0.231243
v -2.768713 2.654177 0.250372
v -2.720268 2.704365 0.242192
v -2.678149 2.748929 0.207948
v -2.648767 2.781085 0.152855
v -2.636595 2.795935 0.085298
v -2.643486 2.791220 0.015564
v -2.668391 2.767661 -0.045732
v -2.707520 2.728840 -0.089258
v -2.755929 2.687635 -0.162098
v -2.619201 2.554920 -0.166639
v -2.682179 2.489675 -0.156005
v -2.736934 2.431741 -0.111488
v -2.775131 2.389940 -0.039866
v -2.790956 2.370634 0.047957
v -2.781996 2.376760 0.138612
v -2.749619 2.407390 0.218297
v -2.698752 2.457859 0.274880
v -2.637141 2.520482 0.299748
v -2.574163 2.585726 0.289114
v -2.519408 2.643660 0.244597
v -2.481210 2.685462 0.172975
v -2.465387 2.704769 0.085152
v -2.474346 2.698641 -0.005503
v -2.506723 2.668011 -0.085188
v -2.557590 2.617543 -0.141771
v -2.818906 2.622391 -0.151464
v -2.873662 2.564458 -0.106948
v -2.911858 2.522655 -0.035326
v -2.927682 2.503348 0.052498
v -2.918723 2.509477 0.143153
v -2.886346 2.540107 0.222837
v -2.835479 2.590574 0.279421
v -2.773867 2.653198 0.304288
v -2.710891 2.718443 0.293654
v -2.656134 2.776376 0.249138
v -2.617937 2.818177 0.177516
v -2.602113 2.837483 0.089692
v -2.611073 2.831355 -0.000963
v -2.643450 2.800727 -0.080647
v -2.694317 2.750256 -0.137231
v -2.253825 2.415958 -0.229074
v -2.155226 2.512014 -0.067670
v -2.181724 2.488452 -0.176862
v -2.572621 2.083636 -0.115356
v -2.462523 2.201768 -0.252917
v -2.537992 2.122809 -0.217564
v -2.166726 2.489938 0.231295
v -2.276824 2.371807 0.368857
v -2.201355 2.450767 0.333504
v -2.485521 2.157617 0.345014
v -2.584121 2.061560 0.183610
v -2.557623 2.085123 0.292802
v -2.413473 2.762683 -0.059094
v -2.512072 2.666628 -0.220498
v -2.439971 2.739122 -0.168286
v -2.720769 2.452438 -0.244341
v -2.830868 2.334306 -0.106779
v -2.796239 2.373478 -0.208988
v -2.535070 2.622476 0.377433
v -2.424973 2.740609 0.239871
v -2.459601 2.701437 0.342080
v -2.842366 2.312230 0.192186
v -2.743767 2.408287 0.353590
v -2.815869 2.335792 0.301378
v -3.338128 3.204335 -0.215111
v -3.314114 3.231768 -0.213954
v -3.395910 3.203900 -0.215071
v -3.360123 3.196841 -0.215411
v -3.425174 3.253676 -0.212899
v -3.413402 3.219184 -0.214395
v -3.396658 3.303889 -0.210767
v -3.420671 3.276454 -0.211923
v -3.338876 3.304322 -0.210807
v -3.374662 3.311381 -0.210466
v -3.309612 3.254546 -0.212979
v -3.321384 3.289038 -0.211482
v -3.314317 3.240369 -0.413769
v -3.338330 3.212935 -0.414926
v -3.360326 3.205441 -0.415226
v -3.396111 3.212500 -0.414886
v -3.413604 3.227784 -0.414210
v -3.425376 3.262276 -0.412714
v -3.420873 3.285054 -0.411738
v -3.396860 3.312487 -0.410582
v -3.374864 3.319981 -0.410281
v -3.339079 3.312922 -0.410621
v -3.321586 3.297639 -0.411297
v -3.309813 3.263146 -0.412793
v -3.287173 3.213370 -0.214773
v -3.316287 3.180110 -0.216175
v -3.362601 3.164330 -0.216808
v -3.405989 3.172890 -0.216396
v -3.442821 3.205071 -0.214973
v -3.457094 3.246892 -0.213159
v -3.447614 3.294852 -0.211104
v -3.418498 3.328112 -0.209702
v -3.372185 3.343892 -0.209070
v -3.328798 3.335334 -0.209482
v -3.291964 3.303153 -0.210904
v -3.277692 3.261330 -0.212719
v -3.316220 3.177216 -0.148950
v -3.287104 3.210477 -0.147547
v -3.405921 3.169997 -0.149170
v -3.362532 3.161437 -0.149582
v -3.457026 3.243998 -0.145933
v -3.442754 3.202178 -0.147747
v -3.418432 3.325219 -0.142476
v -3.447546 3.291959 -0.143878
v -3.328729 3.332440 -0.142256
v -3.372117 3.340998 -0.141844
v -3.277623 3.258437 -0.145493
v -3.291897 3.300259 -0.143678
v -3.319693 3.161326 0.189977
v -3.285980 3.199839 0.191601
v -3.408613 3.158059 0.189927
v -3.358373 3.148146 0.189449
v -3.455902 3.233361 0.193216
v -3.439375 3.184935 0.191115
v -3.414272 3.311930 0.196555
v -3.447984 3.273415 0.194932
v -3.325351 3.315198 0.196606
v -3.375592 3.325108 0.197083
v -3.278061 3.239896 0.193317
v -3.294589 3.288321 0.195418
v -3.286189 3.208754 -0.015500
v -3.319902 3.170239 -0.017124
v -3.358582 3.157061 -0.017652
v -3.408822 3.166972 -0.017175
v -3.439584 3.193848 -0.015987
v -3.456112 3.242274 -0.013886
v -3.448194 3.282330 -0.012170
v -3.414480 3.320843 -0.010546
v -3.375801 3.334023 -0.010018
v -3.325560 3.324111 -0.010495
v -3.294798 3.297234 -0.011683
v -3.278271 3.248809 -0.013784
vn 0.6957 0.7140 0.0795
vn -0.7174 0.6963 0.0238
vn -0.7173 0.6963 0.0238
vn -0.0383 -0.0736 0.9966
vn -0.6957 -0.7140 -0.0795
vn 0.0383 0.0736 -0.9966
vn -0.3965 0.9165 0.0524
vn 0.3682 0.9261 0.0825
vn -0.9172 -0.3932 -0.0643
vn -0.9290 0.3701 -0.0084
vn 0.3682 0.9261 0.0826
vn -0.9172 -0.3931 -0.0643
vn 0.0384 0.0736 -0.9966
vn 0.0668 -0.9968 -0.0430
vn 0.5567 -0.8299 -0.0363
vn -0.4411 -0.8967 -0.0381
vn -0.8307 -0.5562 -0.0231
vn 0.4936 0.4838 0.7227
vn 0.7100 0.3424 -0.6154
vn 0.5446 0.5817 -0.6041
vn 0.6589 0.2444 0.7114
vn 0.7711 0.0583 -0.6341
vn 0.7201 -0.0397 0.6928
vn 0.7187 -0.2272 -0.6571
vn 0.6677 -0.3251 0.6697
vn 0.5608 -0.4706 -0.6812
vn 0.5098 -0.5686 0.6456
vn 0.3214 -0.6349 -0.7025
vn 0.2704 -0.7329 0.6243
vn 0.0370 -0.6951 -0.7179
vn -0.0141 -0.7931 0.6089
vn -0.2492 -0.6421 -0.7250
vn -0.3003 -0.7400 0.6018
vn -0.4936 -0.4838 -0.7227
vn -0.5446 -0.5818 0.6041
vn -0.6589 -0.2444 -0.7114
vn -0.7099 -0.3424 0.6154
vn -0.7200 0.0397 -0.6928
vn -0.7711 -0.0583 0.6341
vn -0.6677 0.3251 -0.6697
vn -0.7187 0.2272 0.6572
vn -0.5098 0.5686 -0.6456
vn -0.5608 0.4706 0.6812
vn -0.2704 0.7329 -0.6243
vn -0.3214 0.6349 0.7025
vn 0.0141 0.7931 -0.6089
vn -0.0370 0.6952 0.7179
vn 0.3003 0.7400 -0.6018
vn 0.2492 0.6421 0.7250
vn -0.8975 0.4406 0.0199
vn -0.9978 -0.0668 -0.0019
vn -0.9978 -0.0667 -0.0019
vn -0.0668 0.9968 0.0430
vn -0.5567 0.8299 0.0363
vn 0.8307 0.5562 0.0231
vn 0.4411 0.8967 0.0381
vn 0.9978 0.0668 0.0019
vn 0.8975 -0.4406 -0.0199
vn 0.9978 0.0667 0.0019
vn 0.4410 0.8967 0.0381
vn -0.0010 0.0430 -0.9991
vn 0.7173 -0.6963 -0.0238
vn 0.7174 -0.6963 -0.0238
vn -0.6748 -0.6859 -0.2724
vn 0.6613 0.6912 -0.2913
vn 0.6332 0.6373 0.4392
vn -0.6898 -0.7146 0.1165
vn 0.6748 0.6859 0.2724
vn -0.6613 -0.6912 0.2913
vn -0.6332 -0.6373 -0.4392
vn 0.6898 0.7146 -0.1165
vn -0.0667 0.9968 0.0430
vn -0.0011 0.0430 -0.9991
vn -0.7937 0.0323 -0.6075
vn -0.0346 0.7717 0.6350
vn -0.0260 -0.9754 -0.2191
vn -0.9923 -0.0697 0.1028
vn -0.9811 -0.0483 -0.1874
vn 0.5508 -0.4135 0.7251
vn -0.6069 0.3058 0.7336
vn 0.3482 -0.6213 0.7019
vn -0.4043 0.5136 0.7568
vn -0.0491 0.8712 -0.4885
vn -0.3482 0.6213 -0.7019
vn 0.4043 -0.5136 -0.7568
vn -0.5508 0.4135 -0.7251
vn 0.0372 0.9968 -0.0710
vn 0.9811 0.0483 0.1874
vn 0.9923 0.0697 -0.1028
vn 0.0096 0.8567 -0.5157
vn 0.6379 0.6427 0.4243
vn 0.6648 0.6943 -0.2755
vn 0.6648 0.6944 -0.2755
vn -0.8379 -0.0527 0.5432
vn -0.6379 -0.6427 -0.4243
vn -0.6648 -0.6943 0.2755
vn -0.5376 0.5908 -0.6017
vn -0.6628 0.3333 -0.6705
vn -0.7051 0.4172 -0.5734
vn -0.3737 0.7573 -0.5355
vn -0.1212 0.8838 -0.4519
vn -0.2782 0.7280 -0.6266
vn -0.8318 0.1545 -0.5331
vn -0.8508 0.2631 -0.4550
vn -0.4684 0.5347 -0.7033
vn -0.9497 0.0255 -0.3120
vn -0.9524 0.1519 -0.2645
vn -0.9945 0.1005 -0.0308
vn -0.9986 -0.0341 -0.0409
vn -0.9709 -0.0152 0.2389
vn -0.9706 0.1168 0.2103
vn -0.8710 0.0793 0.4849
vn -0.8845 0.1983 0.4223
vn -0.7140 0.2351 0.6595
vn -0.7492 0.3326 0.5728
vn 0.3016 0.3412 -0.8903
vn 0.5190 0.5569 -0.6485
vn -0.1522 0.9731 -0.1730
vn 0.6574 0.6878 -0.3079
vn -0.1705 0.9380 0.3017
vn 0.6280 0.6315 0.4548
vn 0.4648 0.4528 0.7609
vn -0.4178 0.6727 0.6107
vn 0.2308 0.2052 0.9511
vn -0.5853 0.4991 0.6390
vn -0.3016 -0.3412 0.8903
vn -0.5190 -0.5569 0.6485
vn -0.6574 -0.6878 0.3079
vn -0.6280 -0.6315 -0.4548
vn -0.4648 -0.4528 -0.7609
vn -0.2308 -0.2052 -0.9511
vn -0.5238 0.4284 0.7363
vn -0.3294 0.6298 0.7034
vn -0.1604 0.8086 0.5660
vn -0.0425 0.9377 0.3450
vn 0.0064 0.9972 0.0739
vn -0.0213 0.9783 -0.2059
vn -0.2384 0.8916 -0.3850
vn -0.1284 0.9894 0.0681
vn -0.2721 0.8268 0.4923
vn 0.0260 0.9754 0.2191
vn 0.8130 -0.0873 0.5757
vn -0.0913 0.7904 0.6057
vn 0.0492 -0.8712 0.4884
vn -0.8551 0.0065 0.5185
vn 0.8551 -0.0065 -0.5185
vn 0.0913 -0.7904 -0.6057
vn -0.8130 0.0873 -0.5757
vn 0.6069 -0.3058 -0.7336
vn -0.0372 -0.9968 0.0710
vt 0.355705 0.237792
vt 0.295105 0.328071
vt 0.280266 0.313231
vt 0.391665 0.201832
vt 0.425475 0.197701
vt 0.406504 0.216672
vt 0.458262 0.161182
vt 0.518862 0.070903
vt 0.533701 0.085743
vt 0.422302 0.197142
vt 0.388492 0.201273
vt 0.407462 0.182302
vt 0.557949 0.107683
vt 0.547523 0.053769
vt 0.583119 0.018173
vt 0.291933 0.327512
vt 0.352532 0.237233
vt 0.367372 0.252072
vt 0.557949 0.106662
vt 0.547523 0.052747
vt 0.583119 0.017152
vt 0.546801 0.055378
vt 0.582397 0.019782
vt 0.696705 0.119718
vt 0.546801 0.051138
vt 0.582397 0.015542
vt 0.696705 0.115478
vt 0.373685 0.219812
vt 0.388525 0.234652
vt 0.461435 0.161741
vt 0.428615 0.164882
vt 0.446595 0.146902
vt 0.443455 0.179721
vt 0.410635 0.182862
vt 0.440282 0.179162
vt 0.425442 0.164322
vt 0.385352 0.234092
vt 0.370512 0.219253
vt 0.403332 0.216113
vt 0.522034 0.071463
vt 0.370545 0.252632
vt 0.443422 0.146343
vt 0.697427 0.018173
vt 0.697427 0.118109
vt 0.583119 0.118109
vt 0.547523 0.082513
vt 0.557949 0.028599
vt 0.277093 0.312672
vt 0.697427 0.017152
vt 0.697427 0.117087
vt 0.583119 0.117087
vt 0.547523 0.081492
vt 0.557949 0.027577
vt 0.582397 0.119718
vt 0.557227 0.109292
vt 0.546801 0.084122
vt 0.557227 0.030208
vt 0.696705 0.019782
vt 0.582397 0.115478
vt 0.557227 0.105052
vt 0.546801 0.079883
vt 0.557227 0.025968
vt 0.696705 0.015542
vt 0.536874 0.086302
vt 0.962003 0.951947
vt 0.995228 0.927786
vt 0.995228 0.951947
vt 0.962003 0.973785
vt 0.995228 0.997947
vt 0.962003 0.997947
vt 0.962003 0.927786
vt 0.995228 0.973785
vt 0.607413 0.036614
vt 0.603145 0.014733
vt 0.607413 0.014733
vt 0.603145 0.036614
vt 0.598876 0.014733
vt 0.598876 0.036614
vt 0.594607 0.014733
vt 0.594607 0.036614
vt 0.590339 0.014733
vt 0.590339 0.036614
vt 0.586070 0.014733
vt 0.586070 0.036614
vt 0.581802 0.014733
vt 0.581802 0.036614
vt 0.577533 0.014733
vt 0.577533 0.036614
vt 0.573264 0.014733
vt 0.573264 0.036614
vt 0.568996 0.014733
vt 0.637294 0.036614
vt 0.633025 0.014733
vt 0.637294 0.014733
vt 0.633025 0.036614
vt 0.628757 0.014733
vt 0.628757 0.036614
vt 0.624488 0.014733
vt 0.624488 0.036614
vt 0.620219 0.014733
vt 0.620219 0.036614
vt 0.615951 0.014733
vt 0.615951 0.036614
vt 0.611682 0.014733
vt 0.611682 0.036614
vt 0.568996 0.036614
vt 0.929180 0.609372
vt 0.990595 0.621480
vt 0.929180 0.621480
vt 0.929181 0.745772
vt 0.990595 0.757879
vt 0.929181 0.757879
vt 0.929181 0.718492
vt 0.990595 0.730599
vt 0.929181 0.730599
vt 0.929181 0.691212
vt 0.990595 0.703319
vt 0.929181 0.703319
vt 0.929181 0.676040
vt 0.990595 0.663932
vt 0.990595 0.676040
vt 0.929180 0.648760
vt 0.990595 0.636652
vt 0.990595 0.648760
vt 0.961280 0.946844
vt 0.928054 0.922682
vt 0.961280 0.922682
vt 0.961280 0.830683
vt 0.928054 0.854844
vt 0.928054 0.830683
vt 0.961280 0.900844
vt 0.928054 0.876682
vt 0.961280 0.876682
vt 0.928054 0.784683
vt 0.961280 0.762844
vt 0.961280 0.784683
vt 0.928054 0.968682
vt 0.961280 0.968682
vt 0.961280 0.854844
vt 0.961280 0.808844
vt 0.928054 0.808844
vt 0.830149 0.564803
vt 0.835887 0.574741
vt 0.814149 0.566716
vt 0.826230 0.587641
vt 0.814149 0.544878
vt 0.929181 0.663932
vt 0.990595 0.594200
vt 0.929180 0.594200
vt 0.929180 0.636652
vt 0.830149 0.546791
vt 0.845142 0.513034
vt 0.835887 0.536853
vt 0.826230 0.523953
vt 0.888216 0.523953
vt 0.878559 0.536853
vt 0.862960 0.527848
vt 0.845142 0.598560
vt 0.851485 0.583746
vt 0.851485 0.527848
vt 0.869304 0.598560
vt 0.869304 0.513034
vt 0.862960 0.583746
vt 0.900297 0.566716
vt 0.888216 0.587641
vt 0.878559 0.574741
vt 0.900297 0.544878
vt 0.884296 0.546791
vt 0.884296 0.564803
vt 0.990595 0.609372
vt 0.990595 0.745772
vt 0.990595 0.718492
vt 0.990595 0.691212
vt 0.928054 0.946844
vt 0.928054 0.900844
vt 0.928054 0.762844
vt 0.414083 0.020191
vt 0.394006 0.009194
vt 0.414083 0.005200
vt 0.440583 0.031167
vt 0.463030 0.037589
vt 0.448707 0.043325
vt 0.440583 0.084166
vt 0.463030 0.077745
vt 0.463030 0.094766
vt 0.414084 0.095142
vt 0.394006 0.106139
vt 0.399742 0.092290
vt 0.379460 0.043325
vt 0.365137 0.057667
vt 0.365137 0.037589
vt 0.387584 0.031167
vt 0.399742 0.023043
vt 0.434161 0.009194
vt 0.463030 0.020567
vt 0.448707 0.072008
vt 0.463030 0.057667
vt 0.434161 0.106139
vt 0.414084 0.110133
vt 0.387584 0.084166
vt 0.365137 0.077745
vt 0.379460 0.072008
vt 0.365137 0.020567
vt 0.428425 0.023043
vt 0.451559 0.057667
vt 0.428425 0.092290
vt 0.360949 0.270723
vt 0.401924 0.282747
vt 0.387449 0.297222
vt 0.376608 0.057667
vt 0.365137 0.094766
vt 0.434161 0.010684
vt 0.434161 0.107629
vt 0.365137 0.079234
vt 0.312776 0.318896
vt 0.353472 0.331198
vt 0.339275 0.345396
vt 0.286543 0.345129
vt 0.325078 0.359593
vt 0.313042 0.371629
vt 0.298579 0.333093
vt 0.537138 0.094534
vt 0.541697 0.142974
vt 0.515198 0.116474
vt 0.464307 0.167365
vt 0.512746 0.171924
vt 0.490806 0.193865
vt 0.438073 0.193598
vt 0.450376 0.234295
vt 0.423876 0.207796
vt 0.389900 0.241772
vt 0.375425 0.256247
vt 0.326973 0.304699
vt 0.365508 0.319162
vt 0.500722 0.130949
vt 0.486247 0.145425
vt 0.452271 0.179401
vt 0.464573 0.220098
vt 0.411840 0.219831
vt 0.416399 0.268271
vt 0.339009 0.292663
vt 0.527222 0.157449
vt 0.478770 0.205901
vt 0.438340 0.246331
vt 0.365137 0.039078
vt 0.365137 0.022057
vt 0.394006 0.010684
vt 0.414084 0.006690
vt 0.463030 0.022057
vt 0.463030 0.039078
vt 0.463030 0.059156
vt 0.365137 0.059156
vt 0.463030 0.079234
vt 0.463030 0.096255
vt 0.414083 0.111622
vt 0.394006 0.107629
vt 0.365137 0.096255
vt 0.563638 0.121033
vt 0.703212 0.935314
vt 0.692293 0.968139
vt 0.669325 0.942270
vt 0.745623 0.945876
vt 0.816728 0.954138
vt 0.745623 0.954138
vt 0.745623 0.903415
vt 0.816728 0.911677
vt 0.745623 0.911677
vt 0.745623 0.890447
vt 0.816728 0.882185
vt 0.816728 0.890447
vt 0.745623 0.924646
vt 0.816728 0.932908
vt 0.745623 0.932908
vt 0.745623 0.967107
vt 0.816728 0.975368
vt 0.745623 0.975369
vt 0.745623 0.988337
vt 0.816728 0.869216
vt 0.745623 0.882185
vt 0.745623 0.869216
vt 0.816728 0.996599
vt 0.745623 0.996599
vt 0.673341 0.935314
vt 0.684260 0.929010
vt 0.692293 0.929010
vt 0.707228 0.942270
vt 0.707228 0.954879
vt 0.703212 0.961835
vt 0.684260 0.968139
vt 0.673341 0.961835
vt 0.669325 0.954879
vt 0.816728 0.945876
vt 0.816728 0.903415
vt 0.816728 0.924646
vt 0.816728 0.967107
vt 0.816728 0.988337
vt 0.580852 0.146243
vt 0.654403 0.833258
vt 0.628151 0.827709
vt 0.556250 0.098026
vt 0.676256 0.087072
vt 0.675217 0.091635
vt 0.557193 0.073165
vt 0.675612 0.059977
vt 0.674674 0.064508
vt 0.545290 0.056720
vt 0.536160 0.045764
vt 0.545290 0.045764
vt 0.520640 0.032070
vt 0.531595 0.041199
vt 0.520640 0.041199
vt 0.531595 0.032070
vt 0.548517 0.028842
vt 0.549855 0.032070
vt 0.560810 0.041199
vt 0.549855 0.041199
vt 0.549855 0.025082
vt 0.560810 0.015953
vt 0.560810 0.025082
vt 0.629694 0.112102
vt 0.643987 0.102551
vt 0.653538 0.116845
vt 0.630084 0.112301
vt 0.644378 0.102750
vt 0.653929 0.117044
vt 0.557340 0.054040
vt 0.679987 0.048462
vt 0.679987 0.054040
vt 0.557124 0.053931
vt 0.679770 0.048875
vt 0.679746 0.054452
vt 0.556784 0.078691
vt 0.680912 0.075517
vt 0.680800 0.081157
vt 0.557105 0.078806
vt 0.681243 0.075104
vt 0.681154 0.080745
vt 0.532927 0.141943
vt 0.460758 0.829304
vt 0.434016 0.833977
vt 0.551144 0.078535
vt 0.550610 0.097870
vt 0.551762 0.053997
vt 0.670009 0.105863
vt 0.673857 0.105126
vt 0.672638 0.106952
vt 0.667164 0.105863
vt 0.663315 0.105126
vt 0.666735 0.103710
vt 0.676475 0.107745
vt 0.674649 0.108965
vt 0.670437 0.103710
vt 0.677892 0.111165
vt 0.675738 0.111594
vt 0.675738 0.114439
vt 0.677891 0.114867
vt 0.676475 0.118287
vt 0.674650 0.117068
vt 0.673858 0.120904
vt 0.672638 0.119079
vt 0.670438 0.122321
vt 0.670009 0.120168
vt 0.649919 0.016570
vt 0.647358 0.035606
vt 0.647358 0.016570
vt 0.652480 0.016570
vt 0.649919 0.035606
vt 0.655042 0.035606
vt 0.655042 0.016570
vt 0.657603 0.016570
vt 0.660164 0.035606
vt 0.660164 0.016570
vt 0.662725 0.016570
vt 0.665286 0.035606
vt 0.665286 0.016570
vt 0.667848 0.035606
vt 0.667848 0.016570
vt 0.670409 0.016570
vt 0.672970 0.035606
vt 0.672970 0.016570
vt 0.675531 0.016570
vt 0.678092 0.035606
vt 0.678092 0.016570
vt 0.680653 0.016570
vt 0.642236 0.035606
vt 0.639675 0.016570
vt 0.642236 0.016570
vt 0.644797 0.016570
vt 0.669494 0.037595
vt 0.673194 0.045317
vt 0.669494 0.045317
vt 0.676893 0.037595
vt 0.676893 0.045317
vt 0.680593 0.037595
vt 0.680593 0.045317
vt 0.621401 0.037595
vt 0.625101 0.045317
vt 0.621401 0.045317
vt 0.628800 0.037595
vt 0.628800 0.045317
vt 0.632500 0.045317
vt 0.632500 0.037595
vt 0.636199 0.045317
vt 0.636199 0.037595
vt 0.639899 0.045317
vt 0.639899 0.037595
vt 0.643598 0.045317
vt 0.643598 0.037595
vt 0.647298 0.045317
vt 0.647298 0.037595
vt 0.650997 0.045317
vt 0.654696 0.037595
vt 0.654696 0.045317
vt 0.658396 0.045317
vt 0.662095 0.037595
vt 0.662095 0.045317
vt 0.665795 0.045317
vt 0.665795 0.037595
vt 0.664535 0.106952
vt 0.660698 0.107744
vt 0.661435 0.111592
vt 0.662523 0.108963
vt 0.659281 0.114865
vt 0.659282 0.111164
vt 0.662524 0.117066
vt 0.661435 0.114437
vt 0.663316 0.120904
vt 0.660698 0.118286
vt 0.667164 0.120168
vt 0.664535 0.119078
vt 0.666736 0.122321
vt 0.531595 0.025082
vt 0.520640 0.028576
vt 0.520640 0.025082
vt 0.531595 0.028576
vt 0.532666 0.056720
vt 0.532666 0.045764
vt 0.529173 0.045764
vt 0.560810 0.028576
vt 0.549855 0.028576
vt 0.548783 0.056720
vt 0.549855 0.044693
vt 0.560810 0.044693
vt 0.549855 0.070414
vt 0.532932 0.073642
vt 0.536160 0.056720
vt 0.579290 0.847266
vt 0.566549 0.865538
vt 0.691746 0.147570
vt 0.688723 0.858776
vt 0.676532 0.848430
vt 0.601776 0.832628
vt 0.678494 0.100209
vt 0.681646 0.102481
vt 0.678963 0.083255
vt 0.676003 0.096248
vt 0.678082 0.072920
vt 0.678212 0.056150
vt 0.675542 0.069053
vt 0.532932 0.044427
vt 0.532932 0.028842
vt 0.536160 0.027505
vt 0.545290 0.027505
vt 0.548517 0.044427
vt 0.560810 0.032070
vt 0.549855 0.015953
vt 0.651723 0.121227
vt 0.648369 0.124581
vt 0.643987 0.126396
vt 0.639244 0.126396
vt 0.634862 0.124581
vt 0.631509 0.121227
vt 0.629694 0.116845
vt 0.631509 0.107720
vt 0.634862 0.104366
vt 0.639244 0.102551
vt 0.648369 0.104366
vt 0.651723 0.107720
vt 0.653538 0.112102
vt 0.652114 0.121425
vt 0.648760 0.124779
vt 0.644378 0.126594
vt 0.639635 0.126594
vt 0.635253 0.124779
vt 0.631899 0.121425
vt 0.630084 0.117044
vt 0.631899 0.107919
vt 0.635253 0.104565
vt 0.639635 0.102750
vt 0.648760 0.104565
vt 0.652114 0.107919
vt 0.653929 0.112301
vt 0.557340 0.048462
vt 0.557148 0.048354
vt 0.556896 0.073051
vt 0.397997 0.866867
vt 0.420752 0.139323
vt 0.521681 0.861431
vt 0.509466 0.850825
vt 0.487253 0.835220
vt 0.411098 0.848528
vt 0.551615 0.073122
vt 0.652480 0.035606
vt 0.657603 0.035606
vt 0.662725 0.035606
vt 0.670409 0.035606
vt 0.675531 0.035606
vt 0.680653 0.035606
vt 0.639675 0.035606
vt 0.644797 0.035606
vt 0.673194 0.037595
vt 0.625101 0.037595
vt 0.650997 0.037595
vt 0.658396 0.037595
vt 0.529173 0.056720
vt 0.548783 0.045764
vt 0.548517 0.058057
vt 0.549855 0.061285
vt 0.548517 0.073642
vt 0.545290 0.074979
vt 0.536160 0.074979
vt 0.531595 0.070414
vt 0.531595 0.061285
vt 0.532932 0.058057
s 1
g off
g Brazo_2_SpacialRoverExploreralumWhite
usemtl SpacialRoverExploreralumWhite
f 61/1/1 50/2/1 52/3/1
s 2
f 60/4/2 63/5/2 67/6/3
s 3
f 73/7/1 54/8/1 56/9/1
s 4
f 72/10/3 75/11/3 79/12/2
s 5
f 68/13/4 63/14/4 64/15/4
s 6
f 55/16/5 76/17/5 69/18/5
s 7
f 80/19/4 75/20/4 76/21/4
s 8
f 72/22/6 73/23/6 55/24/6
s 9
f 60/25/6 61/26/6 51/27/6
s 10
f 67/6/7 62/28/7 60/4/7
s 11
f 68/29/8 61/1/8 62/28/8
s 12
f 64/30/9 59/31/9 57/32/9
s 13
f 65/33/10 58/34/10 59/31/10
s 14
f 79/12/7 74/35/7 72/10/7
s 15
f 80/36/8 73/7/11 74/35/8
s 16
f 76/17/12 71/37/12 69/18/12
s 17
f 77/38/10 70/39/10 71/37/10
s 18
f 51/40/5 64/30/5 57/32/5
s 1
f 61/1/1 66/41/1 50/2/1
s 2
f 60/4/2 58/34/2 63/5/2
s 3
f 73/7/1 78/42/1 54/8/1
s 4
f 72/10/3 70/39/3 75/11/3
s 19
f 64/15/4 49/43/4 50/44/4
s 5
f 50/44/4 66/45/4 68/13/4
f 68/13/4 67/46/4 63/14/4
f 63/14/4 65/47/4 64/15/4
f 64/15/4 50/44/4 68/13/4
s 6
f 55/16/5 53/48/5 76/17/5
s 20
f 76/21/4 53/49/4 54/50/4
s 7
f 54/50/4 78/51/4 80/19/4
f 80/19/4 79/52/4 75/20/4
f 75/20/4 77/53/4 76/21/4
f 76/21/4 54/50/4 80/19/4
s 8
f 55/24/6 69/54/13 71/55/6
f 71/55/6 70/56/6 72/22/6
f 72/22/6 74/57/6 73/23/6
s 21
f 73/23/6 56/58/6 55/24/6
s 8
f 55/24/6 71/55/6 72/22/6
s 9
f 51/27/6 57/59/6 59/60/6
f 59/60/6 58/61/6 60/25/6
f 60/25/6 62/62/6 61/26/6
s 22
f 61/26/6 52/63/6 51/27/6
s 9
f 51/27/6 59/60/6 60/25/6
s 10
f 67/6/7 68/29/7 62/28/7
s 11
f 68/29/8 66/41/8 61/1/8
s 12
f 64/30/9 65/33/9 59/31/9
s 13
f 65/33/10 63/5/10 58/34/10
s 14
f 79/12/7 80/36/7 74/35/7
s 15
f 80/36/8 78/42/11 73/7/11
s 16
f 76/17/12 77/38/9 71/37/12
s 17
f 77/38/10 75/11/10 70/39/10
s 18
f 51/40/5 49/64/5 64/30/5
s 23
f 263/65/14 273/66/15 276/67/14
f 264/68/16 278/69/17 265/70/17
f 276/67/14 264/68/16 263/65/14
f 263/65/14 262/71/15 273/66/15
f 264/68/16 275/72/16 278/69/17
f 276/67/14 275/72/16 264/68/16
s 24
g Brazo_2_SpacialRoverExploreralumGray
usemtl SpacialRoverExploreralumGray
f 110/73/18 111/74/19 109/75/20
f 112/76/21 113/77/22 111/74/19
f 114/78/23 115/79/24 113/77/22
f 116/80/25 117/81/26 115/79/24
f 118/82/27 119/83/28 117/81/26
f 120/84/29 121/85/30 119/83/28
f 122/86/31 123/87/32 121/85/30
f 124/88/33 125/89/34 123/87/32
f 126/90/35 127/91/36 125/89/34
f 128/92/37 129/93/38 127/94/36
f 130/95/39 131/96/40 129/93/38
f 132/97/41 133/98/42 131/96/40
f 134/99/43 135/100/44 133/98/42
f 136/101/45 137/102/46 135/100/44
f 138/103/47 139/104/48 137/102/46
f 140/105/49 109/75/20 139/104/48
f 110/73/18 112/76/21 111/74/19
f 112/76/21 114/78/23 113/77/22
f 114/78/23 116/80/25 115/79/24
f 116/80/25 118/82/27 117/81/26
f 118/82/27 120/84/29 119/83/28
f 120/84/29 122/86/31 121/85/30
f 122/86/31 124/88/33 123/87/32
f 124/88/33 126/90/35 125/89/34
f 126/90/35 128/106/37 127/91/36
f 128/92/37 130/95/39 129/93/38
f 130/95/39 132/97/41 131/96/40
f 132/97/41 134/99/43 133/98/42
f 134/99/43 136/101/45 135/100/44
f 136/101/45 138/103/47 137/102/46
f 138/103/47 140/105/49 139/104/48
f 140/105/49 110/73/18 109/75/20
s 25
f 290/107/17 300/108/16 287/109/16
f 292/110/50 302/111/51 289/112/52
f 294/113/53 304/114/54 291/115/54
f 296/116/55 306/117/56 293/118/56
f 295/119/57 297/120/58 308/121/59
f 285/122/15 299/123/14 298/124/15
s 23
f 266/125/52 280/126/50 267/127/50
f 271/128/55 281/129/56 284/130/55
f 268/131/54 282/132/53 269/133/53
f 274/134/58 262/135/15 261/136/58
f 278/137/17 266/125/52 265/138/17
f 280/126/50 268/131/54 267/127/50
f 282/132/53 270/139/60 269/133/53
f 284/130/55 272/140/59 271/128/55
f 261/136/58 283/141/59 274/134/58
s 26
f 244/142/61 241/143/61 267/144/61
f 241/143/61 266/145/61 267/144/61
f 268/146/61 244/142/61 267/144/61
s 25
f 304/114/54 292/110/50 291/115/54
f 298/124/15 286/147/58 285/122/15
f 302/148/51 290/107/17 289/149/52
f 306/117/56 294/113/53 293/118/56
f 308/121/59 296/116/55 295/119/57
f 287/109/16 299/123/14 288/150/14
s 26
f 244/142/61 268/146/61 243/151/61
f 270/152/61 246/153/61 269/154/61
f 272/155/61 247/156/61 248/157/61
f 241/143/61 265/158/61 266/145/61
f 265/158/61 241/143/61 242/159/61
f 245/160/61 246/153/61 270/152/61
f 264/161/61 265/158/61 242/159/61
f 271/162/61 248/157/61 270/152/61
f 264/161/61 242/159/61 239/163/61
f 262/164/61 263/165/61 240/166/61
f 264/161/61 239/163/61 240/166/61
f 271/162/61 272/155/61 248/157/61
f 263/165/61 264/161/61 240/166/61
f 261/167/61 238/168/61 247/156/61
f 237/169/61 262/164/61 240/166/61
f 272/155/61 261/167/61 247/156/61
f 238/168/61 262/164/61 237/169/61
f 268/146/61 269/154/61 243/151/61
f 248/157/61 245/160/61 270/152/61
f 262/164/61 238/168/61 261/167/61
f 246/153/61 243/151/61 269/154/61
s 25
f 290/107/17 301/170/17 300/108/16
f 292/110/50 303/171/50 302/111/51
f 294/113/53 305/172/53 304/114/54
f 296/116/55 307/173/55 306/117/56
f 295/119/57 286/147/58 297/120/58
f 285/122/15 288/150/14 299/123/14
s 23
f 266/125/52 277/174/51 280/126/50
f 271/128/55 270/139/60 281/129/56
f 268/131/54 279/175/54 282/132/53
f 274/134/58 273/176/15 262/135/15
f 278/137/17 277/174/51 266/125/52
f 280/126/50 279/175/54 268/131/54
f 282/132/53 281/129/56 270/139/60
f 284/130/55 283/141/59 272/140/59
f 261/136/58 272/140/59 283/141/59
s 25
f 304/114/54 303/171/50 292/110/50
f 298/124/15 297/120/58 286/147/58
f 302/148/51 301/170/17 290/107/17
f 306/117/56 305/172/53 294/113/53
f 308/121/59 307/173/55 296/116/55
f 287/109/16 300/108/16 299/123/14
s 27
g Brazo_2_SpacialRoverExploreralumBlack
usemtl SpacialRoverExploreralumBlack
f 15/177/62 30/178/62 29/179/62
f 13/180/62 26/181/62 12/182/62
f 9/183/62 24/184/62 23/185/62
f 7/186/63 20/187/63 6/188/63
f 18/189/63 2/190/63 32/191/62
f 17/192/62 30/178/62 16/193/63
f 13/180/62 28/194/62 27/195/62
f 10/196/63 25/197/62 24/184/62
f 7/186/63 22/198/62 21/199/63
f 5/200/62 1/201/62 4/202/62
f 17/192/62 32/191/62 31/203/62
f 15/177/62 28/194/62 14/204/62
f 12/182/62 25/197/62 11/205/62
f 9/183/62 22/198/62 8/206/62
s 28
f 20/207/64 45/208/64 46/209/64
s 27
f 4/202/62 2/190/63 3/210/63
f 5/200/62 20/187/63 19/211/62
s 29
f 44/212/2 38/213/2 34/214/3
s 30
f 2/215/6 48/216/6 35/217/6
f 31/218/6 34/219/6 33/220/6
f 32/221/6 35/217/6 34/219/6
s 31
f 31/222/65 36/223/65 30/224/65
s 32
f 27/225/66 38/226/66 39/227/66
s 33
f 25/228/4 42/229/4 24/230/4
s 34
f 22/231/67 45/208/67 21/232/67
s 30
f 1/233/6 47/234/6 48/216/6
s 35
f 29/235/68 38/226/68 28/236/68
s 33
f 26/237/4 41/238/4 25/228/4
s 36
f 23/239/69 44/240/69 22/231/69
s 37
f 19/241/70 46/209/70 47/234/70
s 38
f 29/235/71 36/223/71 37/242/71
s 33
f 27/225/4 40/243/4 26/237/4
f 24/230/4 43/244/4 23/239/4
s 27
f 15/177/62 16/193/63 30/178/62
f 13/180/62 27/195/62 26/181/62
f 9/183/62 10/196/63 24/184/62
f 7/186/63 21/199/63 20/187/63
f 18/189/63 3/210/63 2/190/63
f 17/192/62 31/203/62 30/178/62
f 13/180/62 14/204/62 28/194/62
f 10/196/63 11/205/62 25/197/62
f 7/186/63 8/206/62 22/198/62
f 5/200/62 19/211/62 1/201/62
f 17/192/62 18/189/63 32/191/62
f 15/177/62 29/179/62 28/194/62
f 12/182/62 26/181/62 25/197/62
f 9/183/62 23/185/62 22/198/62
s 28
f 20/207/64 21/232/64 45/208/64
s 27
f 4/202/62 1/201/62 2/190/63
f 5/200/62 6/188/63 20/187/63
s 29
f 48/245/2 47/246/3 46/247/2
f 46/247/2 45/248/2 44/212/2
f 44/212/2 43/249/2 42/250/2
f 44/212/2 42/250/2 41/251/3
f 48/245/2 46/247/2 44/212/2
f 35/252/3 48/245/2 44/212/2
f 44/212/2 41/251/3 40/253/2
f 40/253/2 39/254/2 38/213/2
f 38/213/2 37/255/2 36/256/2
f 36/256/2 33/257/3 34/214/3
f 34/214/3 35/252/3 44/212/2
f 44/212/2 40/253/2 38/213/2
f 38/213/2 36/256/2 34/214/3
s 30
f 2/215/6 1/233/6 48/216/6
f 31/218/6 32/221/6 34/219/6
f 32/221/6 2/215/6 35/217/6
s 31
f 31/222/65 33/258/65 36/223/65
s 32
f 27/225/66 28/236/66 38/226/66
s 33
f 25/228/4 41/238/4 42/229/4
s 34
f 22/231/67 44/240/67 45/208/67
s 30
f 1/233/6 19/241/6 47/234/6
s 35
f 29/235/68 37/242/68 38/226/68
s 33
f 26/237/4 40/243/4 41/238/4
s 36
f 23/239/69 43/244/69 44/240/69
s 37
f 19/241/70 20/207/70 46/209/70
s 38
f 29/235/71 30/224/71 36/223/71
s 33
f 27/225/4 39/227/4 40/243/4
f 24/230/4 42/229/4 43/244/4
s 39
g Brazo_2_SpacialRoverExploreralumOrange
usemtl SpacialRoverExploreralumOrange
f 250/259/61 254/260/61 258/261/61
s 40
f 244/262/50 254/263/52 241/264/51
f 248/265/55 258/266/56 245/267/56
f 247/268/57 249/269/58 260/270/59
f 246/271/72 256/272/54 243/273/54
f 242/274/17 252/275/16 239/276/16
f 252/275/16 240/277/14 239/276/16
f 258/266/56 246/271/72 245/267/56
f 260/270/59 248/265/55 247/268/57
f 256/272/54 244/262/50 243/273/54
f 254/263/52 242/274/17 241/264/51
f 250/278/15 238/279/58 237/280/15
f 240/277/14 250/281/15 237/282/15
s 39
f 258/261/61 259/283/73 260/284/61
f 260/284/61 249/285/61 250/259/61
f 250/259/61 251/286/61 252/287/61
f 252/287/61 253/288/73 254/260/61
f 254/260/61 255/289/73 256/290/61
f 256/290/61 257/291/61 258/261/61
f 258/261/61 260/284/61 250/259/61
f 250/259/61 252/287/61 254/260/61
f 254/260/61 256/290/61 258/261/61
s 40
f 244/262/50 255/292/50 254/263/52
f 248/265/55 259/293/55 258/266/56
f 247/268/57 238/279/58 249/269/58
f 246/271/72 257/294/53 256/272/54
f 242/274/17 253/295/17 252/275/16
f 252/275/16 251/296/14 240/277/14
f 258/266/56 257/294/53 246/271/72
f 260/270/59 259/293/55 248/265/55
f 256/272/54 255/292/50 244/262/50
f 254/263/52 253/295/17 242/274/17
f 250/278/15 249/269/58 238/279/58
f 240/277/14 251/296/14 250/281/15
s 41
g Brazo_2_SpacialRoverExploreralumArm
usemtl SpacialRoverExploreralumArm
f 145/297/74 91/298/6 89/299/6
f 144/300/75 95/301/4 94/302/4
s 42
f 147/303/74 101/304/6 99/305/6
s 43
f 216/306/76 234/307/77 229/308/78
f 220/309/79 235/310/80 222/311/81
f 231/312/82 227/313/83 229/308/78
f 226/314/84 217/315/85 228/316/86
f 225/317/87 219/318/88 214/319/89
s 24
f 130/320/39 122/321/31 114/322/23
f 123/323/32 131/324/40 139/325/48
s 42
f 141/326/90 88/327/91 87/328/92
s 41
f 143/329/90 82/330/91 81/331/93
f 146/332/94 83/333/95 84/334/96
s 42
f 148/335/94 85/336/95 86/337/96
f 148/338/94 104/339/4 106/340/4
s 41
f 145/341/74 144/300/75 143/342/90
s 42
f 147/303/74 142/343/75 141/326/90
s 44
f 166/344/97 198/345/98 165/346/99
f 180/347/100 211/348/101 212/349/102
f 165/346/99 199/350/103 167/351/104
f 180/347/100 181/352/105 166/344/97
f 167/351/104 200/353/106 168/354/107
f 169/355/108 200/353/106 201/356/109
f 169/355/108 202/357/110 170/358/111
f 170/358/111 203/359/112 171/360/113
f 171/360/113 204/361/114 172/362/115
f 164/363/116 166/364/97 149/365/6
f 163/366/117 180/367/100 164/363/116
f 178/368/118 163/366/117 162/369/119
f 161/370/1 178/368/118 162/369/119
f 176/371/120 161/370/1 160/372/121
f 159/373/122 176/371/120 160/372/121
f 174/374/123 159/373/122 158/375/124
f 173/376/125 158/375/124 157/377/4
f 156/378/126 173/376/125 157/377/4
f 171/379/113 156/378/126 155/380/127
f 154/381/128 171/379/113 155/380/127
f 169/382/108 154/381/128 153/383/5
f 152/384/129 169/382/108 153/383/5
f 167/385/104 152/386/129 151/387/130
f 150/388/131 167/385/104 151/387/130
f 166/364/97 150/388/131 149/365/6
f 182/389/6 198/390/98 181/391/105
f 198/390/98 184/392/130 199/393/103
f 199/393/103 185/394/129 200/395/106
f 185/396/129 201/397/109 200/398/106
f 201/397/109 187/399/128 202/400/110
f 187/399/128 203/401/112 202/400/110
f 188/402/127 204/403/114 203/401/112
f 189/404/126 205/405/132 204/403/114
f 190/406/4 206/407/133 205/405/132
f 191/408/124 207/409/134 206/407/133
f 192/410/122 208/411/135 207/409/134
f 208/411/135 194/412/1 209/413/136
f 194/412/1 210/414/137 209/413/136
f 210/414/137 196/415/117 211/416/101
f 196/415/117 212/417/102 211/416/101
f 197/418/116 181/391/105 212/417/102
f 179/419/138 210/420/137 211/348/101
f 177/421/139 210/420/137 178/422/118
f 177/421/139 208/423/135 209/424/136
f 175/425/140 208/423/135 176/426/120
f 175/425/140 206/427/133 207/428/134
f 173/429/125 206/427/133 174/430/123
f 173/429/125 204/361/114 205/431/132
s 43
f 232/432/141 221/433/142 219/434/88
f 233/435/143 220/309/79 221/433/142
f 234/307/77 224/436/144 236/437/145
f 224/436/144 235/438/80 236/437/145
f 225/317/87 215/439/146 227/440/83
f 215/439/146 226/314/84 227/440/83
f 229/308/78 218/441/147 216/306/76
f 230/442/148 217/315/85 218/443/147
f 213/444/149 221/445/142 223/446/150
s 41
f 92/447/6 83/448/95 145/297/74
f 145/297/74 143/449/90 81/450/93
f 145/297/74 81/450/93 93/451/6
f 90/452/6 92/447/6 145/297/74
f 89/299/6 90/452/6 145/297/74
f 145/297/74 93/451/6 91/298/6
f 98/453/4 82/454/91 144/300/75
f 144/300/75 146/332/94 84/334/96
f 144/300/75 84/334/96 97/455/4
f 96/456/4 98/453/4 144/300/75
f 94/302/4 96/456/4 144/300/75
f 144/300/75 97/455/4 95/301/4
s 42
f 102/457/6 85/336/95 147/303/74
f 147/303/74 141/326/90 87/328/92
f 147/303/74 87/328/92 103/458/6
f 100/459/6 102/457/6 147/303/74
f 99/305/6 100/459/6 147/303/74
f 147/303/74 103/458/6 101/304/6
s 43
f 216/306/76 223/446/150 234/307/77
f 220/309/79 231/312/82 235/310/80
f 229/308/78 234/307/77 236/460/145
f 236/460/145 235/310/80 231/312/82
f 231/312/82 233/461/143 232/462/141
f 232/462/141 225/463/87 227/313/83
f 227/313/83 226/314/84 228/316/86
f 228/316/86 230/464/148 229/308/78
f 229/308/78 236/460/145 231/312/82
f 231/312/82 232/462/141 227/313/83
f 227/313/83 228/316/86 229/308/78
f 226/314/84 213/465/149 217/315/85
f 225/317/87 232/466/141 219/318/88
s 24
f 114/322/23 112/467/21 110/468/18
f 110/468/18 140/469/49 138/470/47
f 138/470/47 136/471/45 134/472/43
f 134/472/43 132/473/41 130/320/39
f 130/320/39 128/474/37 126/475/35
f 126/475/35 124/476/33 122/321/31
f 122/321/31 120/477/29 118/478/27
f 118/478/27 116/479/25 114/322/23
f 114/322/23 110/468/18 138/470/47
f 138/470/47 134/472/43 130/320/39
f 130/320/39 126/475/35 122/321/31
f 122/321/31 118/478/27 114/322/23
f 114/322/23 138/470/47 130/320/39
f 139/325/48 109/480/20 111/481/19
f 111/481/19 113/482/22 115/483/24
f 115/483/24 117/484/26 119/485/28
f 119/485/28 121/486/30 123/323/32
f 123/323/32 125/487/34 127/488/36
f 127/488/36 129/489/38 131/324/40
f 131/324/40 133/490/42 135/491/44
f 135/491/44 137/492/46 139/325/48
f 139/325/48 111/481/19 115/483/24
f 115/483/24 119/485/28 123/323/32
f 123/323/32 127/488/36 131/324/40
f 131/324/40 135/491/44 139/325/48
f 139/325/48 115/483/24 123/323/32
s 42
f 141/326/90 142/493/75 88/327/91
s 41
f 143/329/90 144/494/75 82/330/91
f 146/332/94 145/495/74 83/333/95
s 42
f 148/335/94 147/303/74 85/336/95
f 88/496/91 142/497/75 148/338/94
f 148/338/94 86/498/96 108/499/4
f 148/338/94 108/499/4 105/500/4
f 107/501/4 88/496/91 148/338/94
f 106/340/4 107/501/4 148/338/94
f 148/338/94 105/500/4 104/339/4
s 41
f 145/341/74 146/332/94 144/300/75
s 42
f 147/303/74 148/502/94 142/343/75
s 44
f 166/344/97 181/352/105 198/345/98
f 180/347/100 179/419/138 211/348/101
f 165/346/99 198/345/98 199/350/103
f 180/347/100 212/349/102 181/352/105
f 167/351/104 199/350/103 200/353/106
f 169/355/108 168/354/107 200/353/106
f 169/355/108 201/356/109 202/357/110
f 170/358/111 202/357/110 203/359/112
f 171/360/113 203/359/112 204/361/114
f 164/363/116 180/367/100 166/364/97
f 163/366/117 179/503/138 180/367/100
f 178/368/118 179/503/138 163/366/117
f 161/370/1 177/504/139 178/368/118
f 176/371/120 177/504/139 161/370/1
f 159/373/122 175/505/140 176/371/120
f 174/374/123 175/505/140 159/373/122
f 173/376/125 174/374/123 158/375/124
f 156/378/126 172/506/115 173/376/125
f 171/379/113 172/506/115 156/378/126
f 154/381/128 170/507/111 171/379/113
f 169/382/108 170/507/111 154/381/128
f 152/384/129 168/508/107 169/382/108
f 167/385/104 168/509/107 152/386/129
f 150/388/131 165/510/99 167/385/104
f 166/364/97 165/510/99 150/388/131
f 182/389/6 183/511/131 198/390/98
f 198/390/98 183/511/131 184/392/130
f 199/393/103 184/392/130 185/394/129
f 185/396/129 186/512/5 201/397/109
f 201/397/109 186/512/5 187/399/128
f 187/399/128 188/402/127 203/401/112
f 188/402/127 189/404/126 204/403/114
f 189/404/126 190/406/4 205/405/132
f 190/406/4 191/408/124 206/407/133
f 191/408/124 192/410/122 207/409/134
f 192/410/122 193/513/121 208/411/135
f 208/411/135 193/513/121 194/412/1
f 194/412/1 195/514/119 210/414/137
f 210/414/137 195/514/119 196/415/117
f 196/415/117 197/418/116 212/417/102
f 197/418/116 182/389/6 181/391/105
f 179/419/138 178/422/118 210/420/137
f 177/421/139 209/424/136 210/420/137
f 177/421/139 176/426/120 208/423/135
f 175/425/140 207/428/134 208/423/135
f 175/425/140 174/430/123 206/427/133
f 173/429/125 205/431/132 206/427/133
f 173/429/125 172/362/115 204/361/114
s 43
f 232/432/141 233/435/143 221/433/142
f 233/435/143 231/312/82 220/309/79
f 234/307/77 223/446/150 224/436/144
f 224/436/144 222/515/81 235/438/80
f 225/317/87 214/319/89 215/439/146
f 215/439/146 213/465/149 226/314/84
f 229/308/78 230/516/148 218/441/147
f 230/442/148 228/316/86 217/315/85
f 223/446/150 216/306/76 218/517/147
f 218/517/147 217/518/85 213/444/149
f 213/444/149 215/519/146 214/520/89
f 214/520/89 219/521/88 221/445/142
f 221/445/142 220/522/79 222/523/81
f 222/523/81 224/524/144 223/446/150
f 223/446/150 218/517/147 213/444/149
f 213/444/149 214/520/89 221/445/142
f 221/445/142 222/523/81 223/446/150
