# Blender 5.2.0 LTS
# www.blender.org
mtllib Pinza_brazo.mtl
g Pinza_del_brazo_RoverModificado.001
v -0.180762 0.041656 -0.094504
v 0.020911 -0.134549 -0.102292
v -0.180553 0.032769 0.111944
v 0.021121 -0.143435 0.104156
v 0.019413 -0.134238 -0.163012
v 0.019744 -0.148341 0.164685
v -0.182910 0.042535 -0.155199
v -0.182578 0.028430 0.172498
v 0.101109 0.340833 0.188500
v 0.100714 0.357597 -0.200974
v 0.291343 0.174621 0.181153
v 0.459962 0.178205 0.173314
v 0.459576 0.194606 -0.207770
v 0.290951 0.191385 -0.208320
v 0.326651 0.615707 -0.190093
v 0.327045 0.598953 0.199147
v 0.611217 0.350667 0.188173
v 0.610824 0.367419 -0.201067
v 0.584572 0.722400 0.091417
v 0.623716 0.686937 0.119879
v 0.590580 0.717735 0.077341
v 0.629724 0.682271 0.105803
v 0.892503 0.913173 -0.103871
v 0.931646 0.877710 -0.075409
v 0.898510 0.908509 -0.117947
v 0.937654 0.873044 -0.089486
v 0.713825 0.617339 -0.100265
v 0.674682 0.652805 -0.128727
v 0.707818 0.622005 -0.086189
v 0.668674 0.657470 -0.114651
v 0.297309 0.172084 0.117457
v 0.297701 0.169152 0.178908
v 0.297101 0.180970 -0.088992
v 0.297368 0.183328 -0.150467
v 0.095368 0.345924 0.186961
v 0.095636 0.348291 0.125245
v 0.095427 0.357175 -0.081204
v 0.095033 0.360120 -0.142893
v 0.878165 0.784618 0.089212
v 0.841203 0.815461 0.125023
v 0.329863 0.232549 -0.206410
v 0.400416 0.237268 -0.206278
v 0.834283 0.822061 0.112196
v 0.871243 0.791217 0.076384
v 0.713248 0.610719 0.068775
v 0.676286 0.641565 0.104587
v 0.720169 0.604120 0.081603
v 0.683207 0.634965 0.117414
v 0.329703 0.239343 -0.364264
v 0.400255 0.244062 -0.364132
v 0.556751 0.411630 -0.126977
v 0.589216 0.380111 -0.053410
v 0.446079 0.509807 -0.157834
v 0.510976 0.453109 -0.160429
v 0.367602 0.573714 -0.044239
v 0.400032 0.548537 -0.120402
v 0.400028 0.539216 0.100741
v 0.367563 0.570737 0.027174
v 0.510699 0.441041 0.131598
v 0.445802 0.497737 0.134193
v 0.589177 0.377134 0.018003
v 0.556746 0.402311 0.094166
v 0.758667 0.573694 -0.045249
v 0.726202 0.605214 -0.118816
v 0.680427 0.646693 -0.152269
v 0.615532 0.703389 -0.149674
v 0.569484 0.742118 -0.112241
v 0.537054 0.767295 -0.036079
v 0.537014 0.764320 0.035334
v 0.569479 0.732801 0.108902
v 0.615255 0.691322 0.142354
v 0.680151 0.634624 0.139759
v 0.726199 0.595895 0.102326
v 0.758629 0.570718 0.026164
v 0.692444 0.632625 -0.068052
v 0.709814 0.615760 -0.028690
v 0.630556 0.687576 -0.086516
v 0.665279 0.657239 -0.087904
v 0.585891 0.724019 -0.023562
v 0.603243 0.710548 -0.064313
v 0.603239 0.705390 0.058137
v 0.585868 0.722253 0.018776
v 0.665126 0.650440 0.076601
v 0.630404 0.680774 0.077989
v 0.709790 0.613996 0.013648
v 0.692439 0.627465 0.054398
v 0.852728 0.779025 -0.021808
v 0.835356 0.795890 -0.061170
v 0.835353 0.790733 0.061280
v 0.852705 0.777261 0.020530
v 0.773318 0.844039 0.084872
v 0.808038 0.813705 0.083484
v 0.728781 0.885520 0.025658
v 0.746153 0.868655 0.065020
v 0.746156 0.873813 -0.057430
v 0.728805 0.887283 -0.016680
v 0.808192 0.820506 -0.081022
v 0.773469 0.850841 -0.079633
v 0.506500 0.358461 -0.201169
v 0.503777 0.399139 -0.199416
v 0.205837 0.379209 -0.199972
v 0.208562 0.338531 -0.201726
v 0.441833 0.453260 -0.197024
v 0.391323 0.470311 -0.196239
v 0.307797 0.464723 -0.196395
v 0.260011 0.441097 -0.197363
v 0.391164 0.477103 -0.354093
v 0.441673 0.460054 -0.354878
v 0.259852 0.447890 -0.355217
v 0.307637 0.471517 -0.354249
v 0.503617 0.405933 -0.357270
v 0.506341 0.365255 -0.359023
v 0.208402 0.345325 -0.359580
v 0.205678 0.386003 -0.357826
v 0.949362 0.852260 -0.026439
v 0.927607 0.873380 -0.075734
v 0.890637 0.906881 -0.102753
v 0.847152 0.944871 -0.101014
v 0.809993 0.976125 -0.070807
v 0.788262 0.992996 -0.019773
v 0.788231 0.990596 0.037806
v 0.809984 0.969476 0.087102
v 0.846956 0.935973 0.114120
v 0.890440 0.897983 0.112381
v 0.927600 0.866731 0.082174
v 0.949330 0.849860 0.031140
v 0.910907 0.854301 -0.076539
v 0.932661 0.833179 -0.027243
v 0.873739 0.878904 0.111576
v 0.830255 0.916894 0.113315
v 0.771561 0.973916 -0.020577
v 0.793292 0.957046 -0.071611
v 0.932629 0.830779 0.030335
v 0.910898 0.847650 0.081370
v 0.793283 0.950397 0.086297
v 0.771530 0.971517 0.037002
v 0.830451 0.925792 -0.101818
v 0.873935 0.887801 -0.103557
v 0.908918 0.889161 -0.062027
v 0.931633 0.867109 -0.010554
v 0.846178 0.944539 -0.072879
v 0.891582 0.904870 -0.074695
v 0.805974 0.976884 -0.005354
v 0.828664 0.959268 -0.058643
v 0.828674 0.953695 0.073394
v 0.805959 0.975747 0.021921
v 0.891415 0.898317 0.084246
v 0.846009 0.937986 0.086062
v 0.931618 0.865972 0.016721
v 0.908928 0.883586 0.070010
v 0.931599 0.864518 0.051580
v 0.892286 0.864574 0.069208
v 0.914976 0.846959 0.015920
v 0.789315 0.956735 0.021119
v 0.812032 0.934682 0.072593
v 0.874941 0.885858 -0.075496
v 0.829535 0.925527 -0.073681
v 0.914991 0.848096 -0.011355
v 0.892276 0.870149 -0.062828
v 0.829366 0.918973 0.085261
v 0.874772 0.879304 0.083445
v 0.812021 0.940257 -0.059444
v 0.789330 0.957872 -0.006155
v 0.756314 0.677408 -0.083853
v 0.883150 0.822307 -0.077745
v 0.844006 0.857770 -0.106207
v 0.717170 0.712871 -0.112315
v 0.889158 0.817641 -0.091821
v 0.762321 0.672742 -0.097929
v 0.723178 0.708207 -0.126391
v 0.850013 0.853105 -0.120283
v 0.749200 0.684385 -0.093204
v 0.880293 0.834146 -0.086890
v 0.858372 0.854005 -0.102829
v 0.727278 0.704244 -0.109142
v 0.883657 0.831533 -0.094773
v 0.752563 0.681770 -0.101086
v 0.730644 0.701631 -0.117025
v 0.861737 0.851394 -0.110711
v 0.700161 0.842921 0.082619
v 0.739305 0.807458 0.111080
v 0.694154 0.847587 0.096695
v 0.733298 0.812124 0.125157
v 0.706298 0.837573 0.090284
v 0.826179 0.974527 0.096057
v 0.851231 0.951831 0.114272
v 0.822335 0.977514 0.105066
v 0.847386 0.954816 0.123281
v 0.727504 0.817863 0.117508
v 0.731349 0.814876 0.108499
v 0.702451 0.840560 0.099292
v 0.786314 0.749851 -0.016318
v 0.776360 0.759515 -0.038876
v 0.757638 0.776481 -0.052558
v 0.737739 0.793864 -0.051762
v 0.718930 0.809686 -0.036472
v 0.708986 0.817405 -0.013118
v 0.708970 0.816192 0.016016
v 0.718925 0.806525 0.038574
v 0.737646 0.789562 0.052256
v 0.757545 0.772176 0.051460
v 0.776355 0.756356 0.036170
v 0.786299 0.748636 0.012816
v 0.819546 0.808851 -0.036796
v 0.829501 0.799186 -0.014238
v 0.829484 0.797973 0.014896
v 0.819541 0.805692 0.038250
v 0.800732 0.821512 0.053540
v 0.780832 0.838897 0.054335
v 0.762110 0.855861 0.040654
v 0.752156 0.865525 0.018095
v 0.752172 0.866742 -0.011038
v 0.762115 0.859021 -0.034392
v 0.780925 0.843202 -0.049682
v 0.800823 0.825814 -0.050478
v 0.910907 0.854301 -0.076539
v 0.932661 0.833179 -0.027243
v 0.873739 0.878904 0.111576
v 0.830255 0.916894 0.113315
v 0.771561 0.973916 -0.020577
v 0.793292 0.957046 -0.071611
v 0.932629 0.830779 0.030335
v 0.910898 0.847650 0.081370
v 0.793283 0.950397 0.086297
v 0.771530 0.971517 0.037002
v 0.830451 0.925792 -0.101818
v 0.873935 0.887801 -0.103557
v 0.892286 0.864574 0.069208
v 0.914976 0.846959 0.015920
v 0.789315 0.956735 0.021119
v 0.812032 0.934682 0.072593
v 0.874941 0.885858 -0.075496
v 0.829535 0.925527 -0.073681
v 0.914991 0.848096 -0.011355
v 0.892276 0.870149 -0.062828
v 0.829366 0.918973 0.085261
v 0.874772 0.879304 0.083445
v 0.812021 0.940257 -0.059444
v 0.789330 0.957872 -0.006155
v 0.329783 0.235946 -0.285337
v 0.400336 0.240665 -0.285205
v 0.503697 0.402536 -0.278343
v 0.506421 0.361858 -0.280096
v 0.208483 0.341928 -0.280653
v 0.205758 0.382606 -0.278899
v 0.441753 0.456657 -0.275951
v 0.391244 0.473706 -0.275166
v 0.259932 0.444494 -0.276290
v 0.307717 0.468120 -0.275322
vn -0.0010 0.0430 -0.9991
vn 0.7527 -0.6580 -0.0220
vn -0.6577 -0.7494 -0.0757
vn -0.6576 -0.7532 0.0124
vn 0.0110 -0.0598 0.9981
vn 0.0120 -0.0616 0.9980
vn 0.0015 -0.0425 0.9991
vn -0.0002 0.0416 -0.9991
vn -0.0003 0.0417 -0.9991
vn -0.6583 -0.7521 -0.0317
vn 0.0192 -0.9989 -0.0430
vn 0.7527 -0.6577 -0.0291
vn 0.6583 0.7521 0.0317
vn 0.0010 -0.0430 0.9991
vn -0.7527 0.6577 0.0291
vn 0.7527 -0.6574 -0.0362
vn -0.7527 0.6580 0.0220
vn -0.7527 0.6574 0.0362
vn -0.0001 -0.0451 0.9990
vn -0.0002 -0.0449 0.9990
vn -0.0003 -0.0445 0.9990
vn -0.0020 0.0405 -0.9992
vn 0.1942 -0.1290 -0.9724
vn 0.5327 -0.4357 -0.7256
vn 0.5327 -0.4356 -0.7256
vn 0.5326 -0.4357 -0.7256
vn -0.5343 0.4966 -0.6840
vn -0.1977 0.2134 -0.9568
vn -0.7273 0.6463 -0.2310
vn -0.7272 0.6246 0.2847
vn -0.7272 0.6463 -0.2310
vn 0.7273 -0.6245 -0.2847
vn 0.7273 -0.6463 0.2310
vn 0.5344 -0.4966 0.6840
vn 0.1977 -0.2134 0.9568
vn 0.7272 -0.6246 -0.2847
vn 0.7272 -0.6463 0.2310
vn -0.1942 0.1290 0.9724
vn -0.5327 0.4357 0.7256
vn -0.5344 0.4966 -0.6840
vn 0.5343 -0.4966 0.6840
vn 0.9978 0.0667 0.0019
vn -0.9978 -0.0667 -0.0019
vn -0.9978 -0.0668 -0.0019
vn -0.6098 0.7918 0.0347
vn -0.2601 0.9647 0.0418
vn -0.5326 0.4357 0.7256
vn 0.6583 0.7521 0.0318
vn -0.6565 -0.7538 -0.0295
vn -0.6566 -0.7537 -0.0292
vn -0.6559 -0.7542 -0.0308
vn -0.6558 -0.7542 -0.0324
vn -0.6558 -0.7543 -0.0311
vn -0.6560 -0.7541 -0.0328
vn -0.6566 -0.7534 -0.0343
vn -0.6565 -0.7536 -0.0340
vn -0.6589 -0.7515 -0.0349
vn -0.6578 -0.7524 -0.0349
vn -0.6575 -0.7526 -0.0350
vn -0.6578 -0.7527 -0.0285
vn -0.6575 -0.7529 -0.0285
vn -0.6592 -0.7512 -0.0349
vn -0.6591 -0.7515 -0.0284
vn -0.6607 -0.7499 -0.0326
vn -0.6602 -0.7504 -0.0339
vn -0.6600 -0.7505 -0.0342
vn -0.6589 -0.7517 -0.0285
vn -0.6601 -0.7506 -0.0294
vn -0.6600 -0.7507 -0.0291
vn -0.6609 -0.7498 -0.0323
vn -0.6607 -0.7500 -0.0306
vn -0.6609 -0.7499 -0.0309
vn 0.4988 0.8659 0.0368
vn 0.1292 0.9907 0.0425
vn 0.0668 -0.9968 -0.0430
vn 0.0488 -0.1281 0.9906
vn 0.0026 0.0365 -0.9993
vn 0.6583 0.7521 0.0309
vn 0.6584 0.7520 0.0318
vn 0.6583 0.7520 0.0317
vn 0.6584 0.7520 0.0317
vn 0.6583 0.7521 0.0316
vn -0.0000 -0.0455 0.9990
vn -0.0020 0.0407 -0.9992
vn -0.0023 0.0415 -0.9991
vn -0.0021 0.0406 -0.9992
vn 0.3755 -0.2916 -0.8798
vn -0.6524 0.5911 -0.4744
vn -0.3755 0.2916 0.8798
vn 0.6524 -0.5911 0.4744
vn -0.6524 0.5911 -0.4743
vn 0.6524 -0.5911 0.4743
vn 0.9978 0.0668 0.0019
vn 0.4326 -0.4125 0.8017
vn -0.4326 0.4124 -0.8017
vn 0.6160 -0.5141 -0.5968
vn 0.6160 -0.5141 -0.5969
vn -0.6160 0.5141 0.5969
vn 0.6523 -0.5910 0.4745
vn 0.6584 0.7520 0.0316
vn -0.6523 0.5910 -0.4745
vn -0.6526 0.5912 -0.4739
vn 0.4326 -0.4124 0.8017
vn -0.4326 0.4125 -0.8017
vn -0.3755 0.2916 0.8797
vn -0.6521 0.5908 -0.4750
vn 0.6558 0.7543 0.0327
vn 0.6557 0.7544 0.0309
vn 0.6564 0.7539 0.0293
vn 0.6564 0.7538 0.0293
vn 0.6557 0.7544 0.0308
vn 0.6565 0.7536 0.0343
vn 0.6564 0.7536 0.0342
vn 0.6609 0.7498 0.0325
vn 0.6609 0.7498 0.0326
vn 0.6602 0.7503 0.0341
vn 0.6577 0.7528 0.0283
vn 0.6602 0.7506 0.0291
vn 0.6590 0.7516 0.0283
vn 0.6577 0.7525 0.0351
vn 0.6576 0.7528 0.0283
vn 0.6590 0.7513 0.0351
vn 0.6576 0.7525 0.0351
vn 0.6602 0.7505 0.0292
vn 0.6609 0.7499 0.0307
vt 0.818999 0.778579
vt 0.914116 0.629338
vt 0.914250 0.778493
vt 0.819558 0.776844
vt 0.797985 0.627646
vt 0.819560 0.626737
vt 0.914250 0.607743
vt 0.818864 0.629424
vt 0.818692 0.607829
vt 0.915119 0.626737
vt 0.819713 0.605144
vt 0.914965 0.605144
vt 0.891213 0.476628
vt 0.812319 0.505639
vt 0.812040 0.418794
vt 0.811243 0.242324
vt 0.890323 0.270676
vt 0.890586 0.328813
vt 0.949127 0.418229
vt 0.890991 0.418491
vt 0.987917 0.416256
vt 0.948723 0.328551
vt 0.987521 0.328509
vt 0.724791 0.329561
vt 0.672336 0.417680
vt 0.671940 0.329934
vt 0.811636 0.329170
vt 0.702434 0.776609
vt 0.702733 0.627455
vt 0.895523 0.477370
vt 0.939836 0.465060
vt 0.928300 0.509248
vt 0.797126 0.778598
vt 0.701562 0.778493
vt 0.680153 0.629259
vt 0.701730 0.628386
vt 0.680476 0.776565
vt 0.681162 0.626459
vt 0.797289 0.628491
vt 0.915121 0.776844
vt 0.626731 0.450373
vt 0.578989 0.473778
vt 0.578989 0.450373
vt 0.507357 0.230394
vt 0.494830 0.202378
vt 0.507357 0.202378
vt 0.517136 0.287214
vt 0.532565 0.270977
vt 0.532565 0.287214
vt 0.517136 0.217712
vt 0.532565 0.234161
vt 0.517136 0.234161
vt 0.517136 0.180764
vt 0.532565 0.164103
vt 0.532565 0.180764
vt 0.507357 0.173801
vt 0.494830 0.145344
vt 0.507357 0.145344
vt 0.507357 0.344240
vt 0.494830 0.315784
vt 0.507357 0.315784
vt 0.507357 0.116716
vt 0.494830 0.088480
vt 0.507357 0.088480
vt 0.517136 0.004110
vt 0.532565 0.020771
vt 0.517136 0.020771
vt 0.507357 0.059955
vt 0.494830 0.031939
vt 0.507357 0.031939
vt 0.507357 0.287155
vt 0.494830 0.258919
vt 0.507357 0.258919
vt 0.517136 0.057719
vt 0.532565 0.074168
vt 0.517136 0.074168
vt 0.638821 0.473778
vt 0.638821 0.450373
vt 0.756065 0.473778
vt 0.743975 0.450373
vt 0.756065 0.450373
vt 0.719595 0.473778
vt 0.703799 0.450373
vt 0.719595 0.450373
vt 0.494830 0.287155
vt 0.494830 0.116716
vt 0.507357 0.003361
vt 0.494830 0.003361
vt 0.494830 0.230394
vt 0.517136 0.110984
vt 0.532565 0.127221
vt 0.517136 0.127221
vt 0.532565 0.217712
vt 0.532565 0.324096
vt 0.532565 0.110984
vt 0.517136 0.164103
vt 0.517136 0.270977
vt 0.532565 0.057719
vt 0.489613 0.131072
vt 0.829839 0.948499
vt 0.844705 0.974433
vt 0.818216 0.955939
vt 0.829839 0.935019
vt 0.912270 0.918134
vt 0.912270 0.935361
vt 0.897404 0.909427
vt 0.923894 0.956377
vt 0.909606 0.981126
vt 0.897350 0.974683
vt 0.909657 0.983020
vt 0.897404 0.976677
vt 0.923894 0.958183
vt 0.912270 0.937263
vt 0.912270 0.950743
vt 0.923894 0.929727
vt 0.897351 0.911421
vt 0.909606 0.904978
vt 0.856818 0.891058
vt 0.885343 0.890970
vt 0.885975 0.904853
vt 0.885292 0.997290
vt 0.885921 0.983402
vt 0.818216 0.927483
vt 0.844759 0.909178
vt 0.856189 0.904945
vt 0.856135 0.983495
vt 0.818216 0.930165
vt 0.832453 0.905328
vt 0.844706 0.911671
vt 0.856767 0.997378
vt 0.832504 0.983370
vt 0.844759 0.976927
vt 0.829840 0.937605
vt 0.818216 0.958621
vt 0.829840 0.951085
vt 0.885292 0.888814
vt 0.885921 0.902702
vt 0.856135 0.902609
vt 0.856766 0.888726
vt 0.832504 0.902734
vt 0.856189 0.981159
vt 0.832453 0.980776
vt 0.885974 0.981251
vt 0.856818 0.995046
vt 0.885343 0.995134
vt 0.909657 0.903084
vt 0.912270 0.948841
vt 0.923894 0.927921
vt 0.663201 0.450373
vt 0.663201 0.473778
vt 0.678997 0.473778
vt 0.743975 0.473778
vt 0.558039 0.473778
vt 0.678997 0.450373
vt 0.703799 0.473778
vt 0.803807 0.450373
vt 0.803807 0.473778
vt 0.797685 0.776800
vt 0.865200 0.505469
vt 0.864095 0.242086
vt 0.725195 0.419186
vt 0.913902 0.509248
vt 0.902576 0.502709
vt 0.895483 0.490423
vt 0.902746 0.465036
vt 0.914112 0.458521
vt 0.928510 0.458521
vt 0.946929 0.477346
vt 0.946889 0.490400
vt 0.939666 0.502733
vt 0.679605 0.778412
vt 0.626731 0.473778
vt 0.494830 0.173801
vt 0.494830 0.344240
vt 0.532565 0.004110
vt 0.494830 0.059955
vt 0.517136 0.324096
vt 0.558039 0.450373
vt 0.908920 0.552420
vt 0.991114 0.582047
vt 0.908920 0.582047
vt 0.908920 0.589947
vt 0.582489 0.317517
vt 0.562160 0.244308
vt 0.582489 0.244308
vt 0.716648 0.317517
vt 0.696319 0.244308
vt 0.716648 0.244308
vt 0.671754 0.317517
vt 0.651774 0.244308
vt 0.671754 0.244308
vt 0.627253 0.317517
vt 0.607098 0.244308
vt 0.627253 0.244308
vt 0.805912 0.317517
vt 0.785932 0.244308
vt 0.805912 0.244308
vt 0.761412 0.317517
vt 0.741257 0.244308
vt 0.761411 0.244308
vt 0.608687 0.822261
vt 0.616587 0.851888
vt 0.608687 0.851888
vt 0.592237 0.963953
vt 0.628612 0.993580
vt 0.592237 0.993580
vt 0.652963 0.889415
vt 0.616587 0.859788
vt 0.652963 0.859788
vt 0.628612 0.918525
vt 0.592237 0.926426
vt 0.592237 0.918525
vt 0.616587 0.897316
vt 0.652963 0.897316
vt 0.803807 0.426967
vt 0.678997 0.426967
vt 0.578989 0.426967
vt 0.719595 0.426967
vt 0.743975 0.426967
vt 0.562160 0.317517
vt 0.537595 0.244308
vt 0.785932 0.317517
vt 0.741257 0.317517
vt 0.696319 0.317517
vt 0.651774 0.317517
vt 0.607098 0.317517
vt 0.695109 0.917171
vt 0.675457 0.894803
vt 0.700162 0.894726
vt 0.649450 0.981720
vt 0.637244 0.960729
vt 0.659301 0.953721
vt 0.680403 0.974121
vt 0.700055 0.996489
vt 0.675350 0.996566
vt 0.726062 0.909572
vt 0.708967 0.925115
vt 0.882102 0.885206
vt 0.836291 0.810139
vt 0.903840 0.799880
vt 0.663201 0.426967
vt 0.628612 0.956053
vt 0.628612 0.963953
vt 0.652963 0.851888
vt 0.628612 0.926426
vt 0.616587 0.822261
vt 0.660863 0.822261
vt 0.652963 0.822261
vt 0.991114 0.544519
vt 0.991114 0.552420
vt 0.908920 0.514892
vt 0.991114 0.514892
vt 0.901020 0.544519
vt 0.908920 0.544519
vt 0.680462 0.917217
vt 0.666605 0.925217
vt 0.695049 0.974075
vt 0.708907 0.966075
vt 0.649557 0.909756
vt 0.659301 0.937777
vt 0.738268 0.930563
vt 0.716210 0.937571
vt 0.637244 0.930930
vt 0.738268 0.960362
vt 0.716210 0.953515
vt 0.725955 0.981536
vt 0.666545 0.966177
vt 0.584336 0.963953
vt 0.584336 0.993580
vt 0.703799 0.426967
vt 0.756065 0.426967
vt 0.626731 0.426967
vt 0.638821 0.426967
vt 0.991114 0.589947
vt 0.616587 0.889415
vt 0.558039 0.426967
vt 0.537595 0.317517
vt 0.921617 0.817656
vt 0.921617 0.874948
vt 0.911358 0.885206
vt 0.864589 0.877952
vt 0.843545 0.856907
vt 0.836291 0.839395
vt 0.846549 0.799880
vt 0.592237 0.956053
vt 0.660863 0.851888
vt 0.901020 0.514892
vt 0.694918 0.553132
vt 0.687018 0.523505
vt 0.694918 0.523505
vt 0.694918 0.561032
vt 0.813426 0.590659
vt 0.694918 0.590659
vt 0.813426 0.553132
vt 0.813426 0.523505
vt 0.694918 0.598560
vt 0.813426 0.561032
vt 0.687018 0.501767
vt 0.785346 0.497342
vt 0.785346 0.501767
vt 0.785346 0.518358
vt 0.687018 0.522782
vt 0.687018 0.518358
vt 0.687018 0.480751
vt 0.785346 0.480751
vt 0.583686 0.914547
vt 0.598318 0.898963
vt 0.603200 0.901804
vt 0.574761 0.816516
vt 0.555477 0.907992
vt 0.555471 0.816517
vt 0.579910 0.907991
vt 0.579904 0.816516
vt 0.599193 0.816516
vt 0.687018 0.553132
vt 0.813426 0.598560
vt 0.687018 0.497342
vt 0.785346 0.522782
vt 0.574767 0.907991
vt 0.603987 0.816560
vt 0.611886 0.352316
vt 0.599433 0.416633
vt 0.599433 0.352316
vt 0.559724 0.352316
vt 0.547170 0.416633
vt 0.547170 0.352316
vt 0.664198 0.352316
vt 0.651846 0.416633
vt 0.651846 0.352316
vt 0.533454 0.352316
vt 0.521001 0.416633
vt 0.521001 0.352316
vt 0.638155 0.352316
vt 0.625601 0.416633
vt 0.625601 0.352316
vt 0.994395 0.872300
vt 0.962003 0.858007
vt 0.994395 0.858007
vt 0.994395 0.817689
vt 0.962003 0.803291
vt 0.994395 0.803291
vt 0.994395 0.790191
vt 0.962003 0.775898
vt 0.994395 0.775898
vt 0.994395 0.899799
vt 0.962003 0.885401
vt 0.994395 0.885401
vt 0.796537 0.803056
vt 0.780657 0.789351
vt 0.799488 0.789292
vt 0.994395 0.912876
vt 0.962003 0.927063
vt 0.962003 0.912876
vt 0.533454 0.416633
vt 0.638155 0.416633
vt 0.585766 0.352316
vt 0.585766 0.416633
vt 0.573415 0.416633
vt 0.573415 0.352316
vt 0.507335 0.352316
vt 0.611886 0.416633
vt 0.962003 0.830767
vt 0.994395 0.830767
vt 0.994395 0.762844
vt 0.962003 0.872300
vt 0.962003 0.790191
vt 0.962003 0.899799
vt 0.962003 0.844954
vt 0.773368 0.808991
vt 0.762840 0.799637
vt 0.783579 0.803096
vt 0.817305 0.799505
vt 0.806748 0.808909
vt 0.799412 0.862455
vt 0.796489 0.848710
vt 0.806700 0.842815
vt 0.766902 0.820111
vt 0.762763 0.852300
vt 0.753450 0.836284
vt 0.766902 0.831859
vt 0.813167 0.819946
vt 0.753450 0.815785
vt 0.826619 0.836021
vt 0.826619 0.815521
vt 0.813167 0.831695
vt 0.817229 0.852168
vt 0.773320 0.842897
vt 0.780580 0.862513
vt 0.783531 0.848750
vt 0.559724 0.416633
vt 0.664198 0.416633
vt 0.962003 0.817689
vt 0.994395 0.927063
vt 0.507335 0.416633
vt 0.962003 0.762844
vt 0.994395 0.844954
s 1
g off
g Pinza_del_brazo_SpacialRoverExploreralumWhite
usemtl SpacialRoverExploreralumWhite
f 31/1/1 3/2/1 36/3/1
s 2
f 34/4/2 2/5/2 5/6/2
s 3
f 8/7/3 4/8/3 6/9/3
s 4
f 7/10/4 2/11/4 1/12/4
s 5
f 11/13/5 17/14/6 16/15/7
s 6
f 18/16/8 14/17/9 10/18/1
s 7
f 10/18/10 11/19/10 9/20/10
s 8
f 12/21/11 14/22/11 13/23/11
s 9
f 18/24/12 12/25/12 13/26/12
s 10
f 16/15/13 18/24/13 15/27/13
s 11
f 2/5/14 37/28/14 1/29/14
s 12
f 195/30/13 199/31/13 203/32/13
s 13
f 10/18/15 16/15/15 15/27/15
s 14
f 32/33/16 4/8/16 31/1/16
s 15
f 35/34/17 3/35/17 8/36/17
s 16
f 1/29/18 38/37/18 7/38/18
s 17
f 32/33/19 8/36/20 6/39/21
s 18
f 34/4/22 7/10/22 38/40/22
s 19
f 243/41/12 42/42/12 241/43/12
s 20
f 138/44/23 116/45/24 127/46/25
s 21
f 145/47/26 160/48/23 155/49/26
f 150/50/27 161/51/28 147/52/28
f 149/53/29 158/54/30 153/55/31
s 20
f 128/56/32 126/57/33 133/58/33
f 136/59/30 120/60/31 131/61/29
f 134/62/34 124/63/35 129/64/35
s 21
f 146/65/36 163/66/37 143/67/37
s 20
f 130/68/38 122/69/39 135/70/39
f 132/71/40 118/72/28 137/73/28
s 21
f 144/74/41 157/75/35 141/76/35
s 22
f 100/77/42 243/41/42 242/78/42
s 23
f 102/79/43 245/80/44 244/81/44
s 24
f 106/82/45 249/83/46 248/84/45
s 20
f 116/45/24 128/56/32 127/46/25
f 124/63/35 130/68/38 129/64/35
f 131/61/29 119/85/40 132/71/40
f 134/62/34 126/57/33 125/86/34
f 136/87/30 122/69/39 121/88/30
f 138/44/23 118/72/28 117/89/23
s 21
f 142/90/38 159/91/47 139/92/47
f 150/50/27 153/55/31 152/93/40
f 154/94/36 145/47/26 155/49/26
f 156/95/38 141/76/35 157/75/35
f 159/91/47 140/96/30 139/92/47
f 161/51/28 148/97/23 147/52/28
f 143/67/37 162/98/41 144/74/41
s 25
f 126/57/13 151/99/13 125/86/13
f 143/100/13 144/101/48 120/102/13
f 146/103/13 143/100/13 120/102/13
f 151/104/13 149/105/13 150/106/13
f 115/107/13 116/108/13 139/109/13
s 26
f 221/110/49 238/111/50 220/112/51
f 230/113/52 220/112/51 239/114/53
f 225/115/54 230/113/52 231/116/55
f 220/112/51 230/113/52 225/115/54
f 224/117/56 225/115/54 231/116/55
f 218/118/57 219/119/58 236/120/59
f 231/116/55 236/120/59 224/117/56
f 226/121/60 233/122/61 221/110/49
s 25
f 146/103/13 121/123/13 145/124/13
s 26
f 238/111/50 239/114/53 220/112/51
f 237/125/62 218/118/57 236/120/59
f 232/126/63 233/122/61 226/121/60
f 222/127/64 223/128/65 228/129/66
f 232/126/63 226/121/60 227/130/67
f 223/128/65 218/118/57 237/125/62
f 232/126/63 227/130/67 216/131/68
f 223/128/65 237/125/62 228/129/66
f 235/132/69 232/126/63 216/131/68
f 229/133/70 222/127/64 228/129/66
f 216/131/68 217/134/71 235/132/69
f 236/120/59 219/119/58 224/117/56
f 233/122/61 238/111/50 221/110/49
f 222/127/64 229/133/70 234/135/72
f 222/127/64 234/135/72 217/134/71
f 217/134/71 234/135/72 235/132/69
s 25
f 124/136/13 147/137/13 148/138/13
f 123/139/13 148/138/13 122/140/13
f 144/101/48 141/141/13 119/142/13
f 144/101/48 119/142/13 120/102/13
f 123/139/13 124/136/13 148/138/13
f 142/143/13 118/144/13 141/141/13
f 148/138/13 145/124/13 122/140/13
f 142/143/13 117/145/13 118/144/13
f 125/146/13 147/137/13 124/136/13
f 142/143/13 116/108/13 117/145/13
f 125/146/13 150/106/13 147/137/13
f 139/109/13 116/108/13 142/143/13
f 125/146/13 151/104/13 150/106/13
f 140/147/13 115/107/13 139/109/13
f 121/123/13 122/140/13 145/124/13
f 141/141/13 118/144/13 119/142/13
f 126/148/13 149/105/13 151/104/13
f 126/148/13 140/147/13 149/105/13
f 126/148/13 115/107/13 140/147/13
f 146/103/13 120/102/13 121/123/13
s 24
f 100/77/13 246/149/73 103/150/73
f 246/149/73 104/151/74 103/150/73
f 101/152/15 248/84/45 245/80/15
s 27
f 41/153/75 241/43/75 42/42/75
s 24
f 247/154/74 105/155/46 104/151/74
s 28
f 102/79/10 240/156/10 41/157/10
s 29
f 31/1/1 4/8/1 3/2/1
s 2
f 34/4/2 33/158/2 2/5/2
s 3
f 8/7/3 3/2/3 4/8/3
s 4
f 7/10/4 5/6/4 2/11/4
s 5
f 16/15/7 9/20/7 11/13/5
f 11/13/5 12/159/76 17/14/6
s 6
f 10/18/1 15/27/1 18/16/8
f 18/16/8 13/160/77 14/17/9
s 7
f 10/18/10 14/22/10 11/19/10
s 8
f 12/21/11 11/19/11 14/22/11
s 9
f 18/24/12 17/161/12 12/25/12
s 10
f 16/15/13 17/161/13 18/24/13
s 30
f 2/5/14 33/158/14 37/28/14
s 12
f 203/32/13 192/162/13 193/163/13
f 193/163/13 194/164/78 195/30/13
f 195/30/13 196/165/79 197/166/80
f 197/166/80 198/167/81 199/31/13
f 199/31/13 200/168/13 201/169/13
f 201/169/13 202/170/82 203/32/13
f 203/32/13 193/163/13 195/30/13
f 195/30/13 197/166/80 199/31/13
f 199/31/13 201/169/13 203/32/13
s 13
f 10/18/15 9/20/15 16/15/15
s 31
f 32/33/16 6/39/16 4/8/16
s 15
f 35/34/17 36/171/17 3/35/17
s 32
f 1/29/18 37/28/18 38/37/18
s 17
f 32/33/19 35/34/83 8/36/20
s 33
f 34/4/84 5/6/85 7/10/86
s 34
f 243/41/12 99/172/12 42/42/12
s 20
f 138/44/23 117/89/23 116/45/24
s 21
f 145/47/26 148/97/23 160/48/23
f 150/50/27 152/93/40 161/51/28
f 149/53/29 140/96/30 158/54/30
s 20
f 128/56/32 115/173/32 126/57/33
f 136/59/30 121/174/30 120/60/31
f 134/62/34 125/86/34 124/63/35
s 21
f 146/65/36 154/175/36 163/66/37
s 20
f 130/68/38 123/176/38 122/69/39
f 132/71/40 119/85/40 118/72/28
s 21
f 144/74/41 162/98/41 157/75/35
s 22
f 100/77/42 99/172/42 243/41/42
s 23
f 102/79/43 101/152/43 245/80/44
s 24
f 106/82/45 105/155/46 249/83/46
s 20
f 116/45/24 115/173/32 128/56/32
f 124/63/35 123/176/38 130/68/38
f 131/61/29 120/60/31 119/85/40
f 134/62/34 133/58/33 126/57/33
f 136/87/30 135/70/39 122/69/39
f 138/44/23 137/73/28 118/72/28
s 21
f 142/90/38 156/95/38 159/91/47
f 150/50/27 149/53/29 153/55/31
f 154/94/36 146/177/36 145/47/26
f 156/95/38 142/90/38 141/76/35
f 159/91/47 158/54/30 140/96/30
f 161/51/28 160/48/23 148/97/23
f 143/67/37 163/66/37 162/98/41
s 24
f 100/77/13 242/78/13 246/149/73
f 246/149/73 247/154/74 104/151/74
f 101/152/15 106/82/45 248/84/45
s 35
f 41/153/75 240/178/75 241/43/75
s 24
f 247/154/74 249/83/46 105/155/46
s 36
f 102/79/10 244/81/10 240/156/10
s 37
g Pinza_del_brazo_SpacialRoverExploreralumGray
usemtl SpacialRoverExploreralumGray
f 181/179/87 21/180/87 180/181/87
s 38
f 21/180/88 182/182/88 180/181/88
s 39
f 61/183/33 63/184/36 74/185/33
f 55/186/31 69/187/30 68/188/31
f 57/189/39 71/190/38 70/191/39
f 59/192/35 73/193/34 72/194/35
f 51/195/24 65/196/23 64/197/24
f 53/198/28 67/199/40 66/200/28
s 40
f 25/201/48 24/202/13 26/203/13
s 41
f 167/204/89 29/205/89 164/206/89
s 42
f 171/207/87 26/208/87 168/209/87
s 43
f 29/210/90 169/211/90 164/212/90
s 44
f 23/213/91 171/207/91 166/214/88
s 36
f 244/81/10 49/215/10 240/156/10
s 24
f 107/216/74 249/83/46 247/154/74
s 35
f 240/178/75 50/217/75 241/43/75
s 24
f 245/80/15 109/218/45 114/219/15
s 39
f 52/220/36 64/221/24 63/184/36
f 66/200/28 54/222/23 53/198/28
f 68/188/31 56/223/27 55/186/31
f 70/191/39 58/224/30 57/189/39
f 72/194/35 60/225/38 59/192/35
f 74/185/33 62/226/34 61/183/33
s 45
f 82/227/13 68/228/13 69/229/13
f 64/230/13 65/231/13 78/232/13
f 76/233/13 74/234/13 63/235/13
f 70/236/13 81/237/13 69/229/13
s 46
f 109/238/1 111/239/1 50/240/1
s 24
f 108/241/73 247/154/74 246/149/73
f 242/78/13 108/241/73 246/149/73
s 47
f 167/204/91 28/242/88 30/243/88
s 48
f 165/244/90 26/208/92 24/202/92
s 49
f 28/242/87 169/211/87 27/245/87
s 50
f 23/246/89 165/244/89 24/202/89
s 51
f 171/247/10 165/244/10 166/248/10
s 52
f 181/179/92 20/249/90 22/250/90
s 53
f 20/249/89 182/251/89 19/252/89
s 54
f 181/253/13 182/251/13 183/254/13
s 45
f 79/255/13 80/256/13 68/228/13
f 74/234/13 85/257/13 86/258/13
f 67/259/13 80/256/13 77/260/13
f 70/236/13 71/261/13 84/262/13
f 81/237/13 70/236/13 84/262/13
f 66/263/13 67/259/13 77/260/13
f 72/264/13 84/262/13 71/261/13
f 77/260/13 78/232/13 66/263/13
f 72/264/13 83/265/13 84/262/13
f 72/264/13 73/266/13 83/265/13
f 75/267/13 64/230/13 78/232/13
f 63/235/13 64/230/13 75/267/13
f 80/256/13 67/259/13 68/228/13
f 73/266/13 74/234/13 86/258/13
f 76/233/13 63/235/13 75/267/13
f 78/232/13 65/231/13 66/263/13
f 73/266/13 86/258/13 83/265/13
f 74/234/13 76/233/13 85/257/13
f 81/237/13 82/227/13 69/229/13
f 68/228/13 82/227/13 79/255/13
s 55
f 170/268/48 164/206/13 169/269/13
s 24
f 248/84/45 110/270/46 109/218/45
s 23
f 244/81/44 114/219/44 113/271/44
s 22
f 242/78/42 112/272/93 111/273/93
s 19
f 112/272/12 241/43/12 50/217/12
s 56
f 181/179/87 22/250/87 21/180/87
s 38
f 21/180/88 19/274/88 182/182/88
s 39
f 61/183/33 52/220/36 63/184/36
f 55/186/31 58/224/30 69/187/30
f 57/189/39 60/225/38 71/190/38
f 59/192/35 62/226/34 73/193/34
f 51/195/24 54/222/23 65/196/23
f 53/198/28 56/223/27 67/199/40
s 40
f 25/201/48 23/246/48 24/202/13
s 57
f 167/204/89 30/243/89 29/205/89
s 42
f 171/207/87 25/275/87 26/208/87
s 43
f 29/210/90 27/245/90 169/211/90
s 44
f 23/213/91 25/275/91 171/207/91
s 36
f 244/81/10 113/271/10 49/215/10
s 24
f 107/216/74 110/270/46 249/83/46
s 35
f 240/178/75 49/276/75 50/217/75
s 24
f 245/80/15 248/84/45 109/218/45
s 39
f 52/220/36 51/277/24 64/221/24
f 66/200/28 65/196/23 54/222/23
f 68/188/31 67/199/40 56/223/27
f 70/191/39 69/187/30 58/224/30
f 72/194/35 71/190/38 60/225/38
f 74/185/33 73/193/34 62/226/34
s 46
f 50/240/1 49/278/1 113/279/1
f 113/279/1 114/280/1 109/238/1
f 109/238/1 110/281/1 107/282/1
f 107/282/1 108/283/1 111/239/1
f 111/239/1 112/284/1 50/240/1
f 50/240/1 113/279/1 109/238/1
f 109/238/1 107/282/1 111/239/1
s 24
f 108/241/73 107/216/74 247/154/74
f 242/78/13 111/273/13 108/241/73
s 47
f 167/204/91 170/285/91 28/242/88
s 48
f 165/244/90 168/209/90 26/208/92
s 58
f 28/242/87 170/285/87 169/211/87
s 50
f 23/246/89 166/248/89 165/244/89
s 51
f 171/247/10 168/286/10 165/244/10
s 52
f 181/179/92 183/254/92 20/249/90
s 59
f 20/249/89 183/254/89 182/251/89
s 54
f 181/253/13 180/287/13 182/251/13
s 55
f 170/268/48 167/204/48 164/206/13
s 24
f 248/84/45 249/83/46 110/270/46
s 23
f 244/81/44 245/80/44 114/219/44
s 22
f 242/78/42 243/41/42 112/272/93
s 19
f 112/272/12 243/41/12 241/43/12
s 60
g Pinza_del_brazo_SpacialRoverExploreralumBlack
usemtl SpacialRoverExploreralumBlack
f 43/288/13 39/289/13 44/290/13
s 61
f 40/291/94 47/292/94 39/293/94
s 62
f 46/294/95 44/290/95 45/295/95
s 63
f 47/292/96 44/296/97 39/293/97
s 64
f 40/291/98 46/294/98 48/297/98
s 65
f 174/298/91 178/299/88 175/300/88
s 66
f 172/301/99 176/302/90 173/303/90
s 67
f 178/299/87 176/304/87 177/305/87
s 68
f 173/303/89 175/300/89 172/301/89
s 69
f 188/306/13 185/307/100 187/308/100
s 70
f 189/309/89 187/310/89 191/311/89
s 71
f 186/312/92 189/309/90 190/313/90
s 72
f 184/314/101 187/308/102 185/307/91
s 73
f 186/312/87 184/314/87 185/307/87
s 60
f 43/288/13 40/315/13 39/289/13
s 74
f 40/291/103 48/297/103 47/292/103
s 75
f 46/294/104 43/288/104 44/290/104
s 63
f 47/292/96 45/316/96 44/296/97
s 64
f 40/291/98 43/288/98 46/294/98
s 65
f 174/298/91 179/317/91 178/299/88
s 66
f 172/301/99 177/318/99 176/302/90
s 76
f 178/299/87 179/317/87 176/304/87
s 68
f 173/303/89 174/298/105 175/300/89
s 69
f 188/306/13 186/312/13 185/307/100
s 77
f 189/309/89 188/319/89 187/310/89
s 71
f 186/312/92 188/319/92 189/309/90
s 72
f 184/314/101 191/320/106 187/308/102
s 78
f 186/312/87 190/313/87 184/314/87
s 79
g Pinza_del_brazo_SpacialRoverExploreralumOrange
usemtl SpacialRoverExploreralumOrange
f 80/321/40 98/322/28 77/323/28
f 76/324/36 90/325/37 85/326/37
f 84/327/38 94/328/39 81/329/39
f 86/330/34 92/331/35 83/332/35
f 82/333/30 96/334/31 79/335/29
s 80
f 213/336/34 195/337/35 214/338/35
f 205/339/30 203/340/31 206/341/29
f 207/342/40 201/343/28 208/344/28
f 211/345/36 197/346/33 212/347/33
s 81
f 211/348/107 96/349/108 93/350/107
s 80
f 210/351/24 200/352/23 199/353/26
s 79
f 86/330/34 90/325/37 89/354/34
f 82/333/30 94/328/39 93/355/30
f 78/356/23 98/322/28 97/357/23
f 88/358/24 76/324/36 75/359/24
f 92/331/35 84/360/38 83/332/35
f 79/335/29 95/361/40 80/321/40
f 78/356/23 88/358/24 75/359/24
s 80
f 193/362/39 205/339/30 204/363/39
f 201/343/28 209/364/23 208/344/28
f 212/347/33 196/365/34 213/336/34
f 207/342/40 203/340/31 202/366/40
f 211/345/36 199/353/26 198/367/36
f 194/368/38 214/338/35 195/337/35
f 204/363/39 194/368/38 193/362/39
s 81
f 213/369/109 95/370/110 96/349/108
f 96/349/108 211/348/107 212/371/111
f 94/372/112 210/373/113 93/350/107
f 212/371/111 213/369/109 96/349/108
f 90/374/114 206/375/115 207/376/116
f 95/370/110 213/369/109 214/377/117
f 88/378/118 97/379/119 215/380/119
f 210/373/113 94/372/112 209/381/120
f 98/382/121 95/370/110 214/377/117
f 92/383/122 209/381/120 91/384/123
f 214/377/117 215/380/119 98/382/121
f 92/383/122 208/385/122 209/381/120
f 92/383/122 89/386/116 208/385/122
f 204/387/124 88/378/118 215/380/119
f 87/388/125 88/378/118 204/387/124
f 94/372/112 91/384/123 209/381/120
f 89/386/116 90/374/114 207/376/116
f 205/389/125 87/388/125 204/387/124
f 215/380/119 97/379/119 98/382/121
f 89/386/116 207/376/116 208/385/122
f 205/389/125 90/374/114 87/388/125
f 210/373/113 211/348/107 93/350/107
f 90/374/114 205/389/125 206/375/115
s 79
f 80/321/40 95/361/40 98/322/28
f 76/324/36 87/390/36 90/325/37
f 84/327/38 91/391/38 94/328/39
f 86/330/34 89/354/34 92/331/35
f 82/333/30 93/355/30 96/334/31
s 80
f 213/336/34 196/365/34 195/337/35
f 205/339/30 192/392/30 203/340/31
f 207/342/40 202/366/40 201/343/28
f 211/345/36 198/367/36 197/346/33
f 210/351/24 209/393/23 200/352/23
s 79
f 86/330/34 85/326/37 90/325/37
f 82/333/30 81/329/39 94/328/39
f 78/356/23 77/323/28 98/322/28
f 88/358/24 87/390/36 76/324/36
f 92/331/35 91/394/38 84/360/38
f 79/335/29 96/334/31 95/361/40
f 78/356/23 97/357/23 88/358/24
s 80
f 193/362/39 192/392/30 205/339/30
f 201/343/28 200/395/23 209/364/23
f 212/347/33 197/346/33 196/365/34
f 207/342/40 206/341/29 203/340/31
f 211/345/36 210/351/24 199/353/26
f 194/368/38 215/396/38 214/338/35
f 204/363/39 215/396/38 194/368/38
